<?xml version="1.0" encoding="UTF-8" standalone="yes"?><svg xmlns="http://www.w3.org/2000/svg" xmlns:xlink="http://www.w3.org/1999/xlink" height="517.8px" style="width:1341px;height:517px;" version="1.1" viewBox="0 0 1341 517" width="1341.6001px"><defs><filter height="300%" id="f1" width="300%" x="-1" y="-1"><feGaussianBlur result="blurOut" stdDeviation="1.2000000476837158"/><feColorMatrix in="blurOut" result="blurOut2" type="matrix" values="0 0 0 0 0 0 0 0 0 0 0 0 0 0 0 0 0 0 .4 0"/><feOffset dx="2.4000000953674316" dy="2.4000000953674316" in="blurOut2" result="blurOut3"/><feBlend in="SourceGraphic" in2="blurOut3" mode="normal"/></filter></defs><g><polygon fill="#FFFFFF" filter="url(#f1)" points="357.6,19.2,465.6,19.2,469.8,32.5781,625.8,32.5781,625.8,162,357.6,162,357.6,19.2" style="stroke: #000000; stroke-width: 1.2000000476837158;"/><line style="stroke: #000000; stroke-width: 1.2000000476837158;" x1="357.6" x2="469.8" y1="32.5781" y2="32.5781"/><text fill="#000000" font-family="sans-serif" font-size="8.4" font-weight="bold" lengthAdjust="spacingAndGlyphs" textLength="104.4" x="359.4" y="28.7971">se.hig.oodp.lab.model</text><polygon fill="#FFFFFF" filter="url(#f1)" points="18,205.2,187.8,205.2,192,218.5781,496.8,218.5781,496.8,483,18,483,18,205.2" style="stroke: #000000; stroke-width: 1.2000000476837158;"/><line style="stroke: #000000; stroke-width: 1.2000000476837158;" x1="18" x2="192" y1="218.5781" y2="218.5781"/><text fill="#000000" font-family="sans-serif" font-size="8.4" font-weight="bold" lengthAdjust="spacingAndGlyphs" textLength="166.2" x="19.8" y="214.7971">se.hig.oodp.lab.model.simplefigure</text><polygon fill="#FFFFFF" filter="url(#f1)" points="520.8,186,660,186,664.2,199.3781,1337.4001,199.3781,1337.4001,513.6,520.8,513.6,520.8,186" style="stroke: #000000; stroke-width: 1.2000000476837158;"/><line style="stroke: #000000; stroke-width: 1.2000000476837158;" x1="520.8" x2="664.2" y1="199.3781" y2="199.3781"/><text fill="#000000" font-family="sans-serif" font-size="8.4" font-weight="bold" lengthAdjust="spacingAndGlyphs" textLength="135.6" x="522.6" y="195.5971">se.hig.oodp.lab.model.figure</text><rect fill="#FEFECE" filter="url(#f1)" height="102.7453" style="stroke: #A80036; stroke-width: 0.9000000357627869;" width="228" x="383.4" y="45"/><ellipse cx="477.75" cy="54.6" fill="#ADD1B2" rx="6.6" ry="6.6" style="stroke: #A80036; stroke-width: 0.6000000238418579;"/><path d="M479.5313,57.9844 Q479.1844,58.1625 478.8,58.2516 Q478.4156,58.3406 477.9938,58.3406 Q476.4938,58.3406 475.7016,57.3516 Q474.9094,56.3625 474.9094,54.4875 Q474.9094,52.6125 475.7016,51.6188 Q476.4938,50.625 477.9938,50.625 Q478.4156,50.625 478.8047,50.7188 Q479.1938,50.8125 479.5313,50.9906 L479.5313,52.6219 Q479.1563,52.275 478.8,52.1109 Q478.4438,51.9469 478.0688,51.9469 Q477.2625,51.9469 476.85,52.5891 Q476.4375,53.2313 476.4375,54.4875 Q476.4375,55.7438 476.85,56.3859 Q477.2625,57.0281 478.0688,57.0281 Q478.4438,57.0281 478.8,56.8641 Q479.1563,56.7 479.5313,56.3531 L479.5313,57.9844 Z "/><text fill="#000000" font-family="sans-serif" font-size="7.2" lengthAdjust="spacingAndGlyphs" textLength="34.2" x="490.05" y="57.0926">Vertex2D</text><line style="stroke: #A80036; stroke-width: 0.9000000357627869;" x1="384" x2="610.8" y1="64.2" y2="64.2"/><rect fill="none" height="3.6" style="stroke: #C82930; stroke-width: 0.6000000238418579;" width="3.6" x="388.2" y="69.5414"/><text fill="#000000" font-family="sans-serif" font-size="6.6" lengthAdjust="spacingAndGlyphs" textLength="28.8" x="395.4" y="72.7263">x:double</text><rect fill="none" height="3.6" style="stroke: #C82930; stroke-width: 0.6000000238418579;" width="3.6" x="388.2" y="77.2242"/><text fill="#000000" font-family="sans-serif" font-size="6.6" lengthAdjust="spacingAndGlyphs" textLength="28.8" x="395.4" y="80.4091">y:double</text><line style="stroke: #A80036; stroke-width: 0.6000000238418579;" x1="384" x2="610.8" y1="84.3656" y2="84.3656"/><ellipse cx="390" cy="91.507" fill="#84BE84" rx="1.8" ry="1.8" style="stroke: #038048; stroke-width: 0.6000000238418579;"/><text fill="#000000" font-family="sans-serif" font-size="6.6" lengthAdjust="spacingAndGlyphs" textLength="97.8" x="395.4" y="92.8919">Vertex2D(x:double, y:double)</text><line style="stroke: #A80036; stroke-width: 0.6000000238418579; stroke-dasharray: 1.0,2.0;" x1="384" x2="610.8" y1="96.8484" y2="96.8484"/><ellipse cx="390" cy="103.9898" fill="#84BE84" rx="1.8" ry="1.8" style="stroke: #038048; stroke-width: 0.6000000238418579;"/><text fill="#000000" font-family="sans-serif" font-size="6.6" lengthAdjust="spacingAndGlyphs" textLength="45" x="395.4" y="105.3747">getX():double</text><ellipse cx="390" cy="111.6727" fill="#84BE84" rx="1.8" ry="1.8" style="stroke: #038048; stroke-width: 0.6000000238418579;"/><text fill="#000000" font-family="sans-serif" font-size="6.6" lengthAdjust="spacingAndGlyphs" textLength="45" x="395.4" y="113.0575">getY():double</text><ellipse cx="390" cy="119.3555" fill="#84BE84" rx="1.8" ry="1.8" style="stroke: #038048; stroke-width: 0.6000000238418579;"/><text fill="#000000" font-family="sans-serif" font-size="6.6" lengthAdjust="spacingAndGlyphs" textLength="135.6" x="395.4" y="120.7403">moveBy(dx:double, dy:double):Vertex2D</text><ellipse cx="390" cy="127.0383" fill="#84BE84" rx="1.8" ry="1.8" style="stroke: #038048; stroke-width: 0.6000000238418579;"/><text fill="#000000" font-family="sans-serif" font-size="6.6" lengthAdjust="spacingAndGlyphs" textLength="149.4" x="395.4" y="128.4231">rotate(ref:Vertex2D, angle:double):Vertex2D</text><ellipse cx="390" cy="134.7211" fill="#84BE84" rx="1.8" ry="1.8" style="stroke: #038048; stroke-width: 0.6000000238418579;"/><text fill="#000000" font-family="sans-serif" font-size="6.6" lengthAdjust="spacingAndGlyphs" textLength="212.4" x="395.4" y="136.106">scale(ref:Vertex2D, x_factor:double, y_factor:double):Vertex2D</text><ellipse cx="390" cy="142.4039" fill="#84BE84" rx="1.8" ry="1.8" style="stroke: #038048; stroke-width: 0.6000000238418579;"/><text fill="#000000" font-family="sans-serif" font-size="6.6" lengthAdjust="spacingAndGlyphs" textLength="54.6" x="395.4" y="143.7888">toString():String</text><rect fill="#FEFECE" filter="url(#f1)" height="64.3313" style="stroke: #A80036; stroke-width: 0.9000000357627869;" width="118.2" x="275.1" y="231"/><ellipse cx="307.65" cy="240.6" fill="#A9DCDF" rx="6.6" ry="6.6" style="stroke: #A80036; stroke-width: 0.6000000238418579;"/><path d="M307.7156,237.8063 L307.0219,240.8531 L308.4188,240.8531 L307.7156,237.8063 Z M306.825,236.4656 L308.6156,236.4656 L310.6313,243.9 L309.1594,243.9 L308.7,242.0625 L306.7313,242.0625 L306.2813,243.9 L304.8188,243.9 L306.825,236.4656 Z "/><text fill="#000000" font-family="sans-serif" font-size="7.2" font-style="italic" lengthAdjust="spacingAndGlyphs" textLength="48" x="319.95" y="243.0926">SimpleFigure</text><line style="stroke: #A80036; stroke-width: 0.9000000357627869;" x1="275.7" x2="392.7" y1="250.2" y2="250.2"/><polygon fill="none" points="281.7,254.3414,284.1,256.7414,281.7,259.1414,279.3,256.7414" style="stroke: #B38D22; stroke-width: 0.6000000238418579;"/><text fill="#000000" font-family="sans-serif" font-size="6.6" lengthAdjust="spacingAndGlyphs" textLength="60" x="287.1" y="258.7263">position:Vertex2D</text><line style="stroke: #A80036; stroke-width: 0.6000000238418579;" x1="275.7" x2="392.7" y1="262.6828" y2="262.6828"/><text fill="#000000" font-family="sans-serif" font-size="6.6" lengthAdjust="spacingAndGlyphs" textLength="109.2" x="278.7" y="271.2091">SimpleFigure(position:Vertex2D)</text><line style="stroke: #A80036; stroke-width: 0.6000000238418579; stroke-dasharray: 1.0,2.0;" x1="275.7" x2="392.7" y1="275.1656" y2="275.1656"/><ellipse cx="281.7" cy="282.307" fill="#84BE84" rx="1.8" ry="1.8" style="stroke: #038048; stroke-width: 0.6000000238418579;"/><text fill="#000000" font-family="sans-serif" font-size="6.6" lengthAdjust="spacingAndGlyphs" textLength="102.6" x="287.1" y="283.6919">moveBy(dx:double. dy:double)</text><ellipse cx="281.7" cy="289.9899" fill="#84BE84" rx="1.8" ry="1.8" style="stroke: #038048; stroke-width: 0.6000000238418579;"/><text fill="#000000" font-family="sans-serif" font-size="6.6" lengthAdjust="spacingAndGlyphs" textLength="75.6" x="287.1" y="291.3747">getPosition():Vertex2D</text><rect fill="#FEFECE" filter="url(#f1)" height="56.6484" style="stroke: #A80036; stroke-width: 0.9000000357627869;" width="97.2" x="213" y="396.6"/><ellipse cx="249.45" cy="406.2" fill="#ADD1B2" rx="6.6" ry="6.6" style="stroke: #A80036; stroke-width: 0.6000000238418579;"/><path d="M251.2313,409.5844 Q250.8844,409.7625 250.5,409.8516 Q250.1156,409.9406 249.6938,409.9406 Q248.1938,409.9406 247.4016,408.9516 Q246.6094,407.9625 246.6094,406.0875 Q246.6094,404.2125 247.4016,403.2188 Q248.1938,402.225 249.6938,402.225 Q250.1156,402.225 250.5047,402.3188 Q250.8938,402.4125 251.2313,402.5906 L251.2313,404.2219 Q250.8563,403.875 250.5,403.711 Q250.1438,403.5469 249.7688,403.5469 Q248.9625,403.5469 248.55,404.1891 Q248.1375,404.8313 248.1375,406.0875 Q248.1375,407.3438 248.55,407.986 Q248.9625,408.6281 249.7688,408.6281 Q250.1438,408.6281 250.5,408.4641 Q250.8563,408.3 251.2313,407.9531 L251.2313,409.5844 Z "/><text fill="#000000" font-family="sans-serif" font-size="7.2" lengthAdjust="spacingAndGlyphs" textLength="19.2" x="261.75" y="408.6926">Point</text><line style="stroke: #A80036; stroke-width: 0.9000000357627869;" x1="213.6" x2="309.6" y1="415.8" y2="415.8"/><ellipse cx="219.6" cy="422.9414" fill="#84BE84" rx="1.8" ry="1.8" style="stroke: #038048; stroke-width: 0.6000000238418579;"/><text fill="#000000" font-family="sans-serif" font-size="6.6" lengthAdjust="spacingAndGlyphs" textLength="81.6" x="225" y="424.3263">Point(position:Vertex2D)</text><line style="stroke: #A80036; stroke-width: 0.6000000238418579;" x1="213.6" x2="309.6" y1="428.2828" y2="428.2828"/><text fill="#000000" font-family="sans-serif" font-size="6.6" lengthAdjust="spacingAndGlyphs" textLength="81.6" x="216.6" y="436.8091">Point(position:Vertex2D)</text><line style="stroke: #A80036; stroke-width: 0.6000000238418579; stroke-dasharray: 1.0,2.0;" x1="213.6" x2="309.6" y1="440.7656" y2="440.7656"/><ellipse cx="219.6" cy="447.907" fill="#84BE84" rx="1.8" ry="1.8" style="stroke: #038048; stroke-width: 0.6000000238418579;"/><text fill="#000000" font-family="sans-serif" font-size="6.6" lengthAdjust="spacingAndGlyphs" textLength="54.6" x="225" y="449.2919">toString():String</text><rect fill="#FEFECE" filter="url(#f1)" height="72.0141" style="stroke: #A80036; stroke-width: 0.9000000357627869;" width="151.2" x="331.2" y="388.8"/><ellipse cx="394.05" cy="398.4" fill="#ADD1B2" rx="6.6" ry="6.6" style="stroke: #A80036; stroke-width: 0.6000000238418579;"/><path d="M395.8313,401.7844 Q395.4844,401.9625 395.1,402.0516 Q394.7156,402.1406 394.2938,402.1406 Q392.7938,402.1406 392.0016,401.1516 Q391.2094,400.1625 391.2094,398.2875 Q391.2094,396.4125 392.0016,395.4188 Q392.7938,394.425 394.2938,394.425 Q394.7156,394.425 395.1047,394.5188 Q395.4938,394.6125 395.8313,394.7906 L395.8313,396.4219 Q395.4563,396.075 395.1,395.911 Q394.7438,395.7469 394.3688,395.7469 Q393.5625,395.7469 393.15,396.3891 Q392.7375,397.0313 392.7375,398.2875 Q392.7375,399.5438 393.15,400.186 Q393.5625,400.8281 394.3688,400.8281 Q394.7438,400.8281 395.1,400.6641 Q395.4563,400.5 395.8313,400.1531 L395.8313,401.7844 Z "/><text fill="#000000" font-family="sans-serif" font-size="7.2" lengthAdjust="spacingAndGlyphs" textLength="20.4" x="406.35" y="400.8926">Circle</text><line style="stroke: #A80036; stroke-width: 0.9000000357627869;" x1="331.8" x2="481.8" y1="408" y2="408"/><rect fill="none" height="3.6" style="stroke: #C82930; stroke-width: 0.6000000238418579;" width="3.6" x="336" y="413.3414"/><text fill="#000000" font-family="sans-serif" font-size="6.6" lengthAdjust="spacingAndGlyphs" textLength="46.8" x="343.2" y="416.5263">radius:double</text><line style="stroke: #A80036; stroke-width: 0.6000000238418579;" x1="331.8" x2="481.8" y1="420.4828" y2="420.4828"/><ellipse cx="337.8" cy="427.6242" fill="#84BE84" rx="1.8" ry="1.8" style="stroke: #038048; stroke-width: 0.6000000238418579;"/><text fill="#000000" font-family="sans-serif" font-size="6.6" lengthAdjust="spacingAndGlyphs" textLength="135.6" x="343.2" y="429.0091">Circle(position:Vertex2D, radius:double)</text><line style="stroke: #A80036; stroke-width: 0.6000000238418579; stroke-dasharray: 1.0,2.0;" x1="331.8" x2="481.8" y1="432.9656" y2="432.9656"/><ellipse cx="337.8" cy="440.107" fill="#84BE84" rx="1.8" ry="1.8" style="stroke: #038048; stroke-width: 0.6000000238418579;"/><text fill="#000000" font-family="sans-serif" font-size="6.6" lengthAdjust="spacingAndGlyphs" textLength="67.8" x="343.2" y="441.4919">scale(factor:double)</text><ellipse cx="337.8" cy="447.7899" fill="#84BE84" rx="1.8" ry="1.8" style="stroke: #038048; stroke-width: 0.6000000238418579;"/><text fill="#000000" font-family="sans-serif" font-size="6.6" lengthAdjust="spacingAndGlyphs" textLength="63.6" x="343.2" y="449.1747">getRadius():double</text><ellipse cx="337.8" cy="455.4727" fill="#84BE84" rx="1.8" ry="1.8" style="stroke: #038048; stroke-width: 0.6000000238418579;"/><text fill="#000000" font-family="sans-serif" font-size="6.6" lengthAdjust="spacingAndGlyphs" textLength="54.6" x="343.2" y="456.8575">toString():String</text><rect fill="#FEFECE" filter="url(#f1)" height="87.3797" style="stroke: #A80036; stroke-width: 0.9000000357627869;" width="154.2" x="37.5" y="381"/><ellipse cx="100.05" cy="390.6" fill="#ADD1B2" rx="6.6" ry="6.6" style="stroke: #A80036; stroke-width: 0.6000000238418579;"/><path d="M101.8313,393.9844 Q101.4844,394.1625 101.1,394.2516 Q100.7156,394.3406 100.2938,394.3406 Q98.7938,394.3406 98.0016,393.3516 Q97.2094,392.3625 97.2094,390.4875 Q97.2094,388.6125 98.0016,387.6188 Q98.7938,386.625 100.2938,386.625 Q100.7156,386.625 101.1047,386.7188 Q101.4938,386.8125 101.8313,386.9906 L101.8313,388.6219 Q101.4563,388.275 101.1,388.111 Q100.7438,387.9469 100.3688,387.9469 Q99.5625,387.9469 99.15,388.5891 Q98.7375,389.2313 98.7375,390.4875 Q98.7375,391.7438 99.15,392.386 Q99.5625,393.0281 100.3688,393.0281 Q100.7438,393.0281 101.1,392.8641 Q101.4563,392.7 101.8313,392.3531 L101.8313,393.9844 Z "/><text fill="#000000" font-family="sans-serif" font-size="7.2" lengthAdjust="spacingAndGlyphs" textLength="24" x="112.35" y="393.0926">Ellipse</text><line style="stroke: #A80036; stroke-width: 0.9000000357627869;" x1="38.1" x2="191.1" y1="400.2" y2="400.2"/><rect fill="none" height="3.6" style="stroke: #C82930; stroke-width: 0.6000000238418579;" width="3.6" x="42.3" y="405.5414"/><text fill="#000000" font-family="sans-serif" font-size="6.6" lengthAdjust="spacingAndGlyphs" textLength="43.2" x="49.5" y="408.7263">width:double</text><rect fill="none" height="3.6" style="stroke: #C82930; stroke-width: 0.6000000238418579;" width="3.6" x="42.3" y="413.2242"/><text fill="#000000" font-family="sans-serif" font-size="6.6" lengthAdjust="spacingAndGlyphs" textLength="46.2" x="49.5" y="416.4091">height:double</text><line style="stroke: #A80036; stroke-width: 0.6000000238418579;" x1="38.1" x2="191.1" y1="420.3656" y2="420.3656"/><ellipse cx="44.1" cy="427.507" fill="#84BE84" rx="1.8" ry="1.8" style="stroke: #038048; stroke-width: 0.6000000238418579;"/><text fill="#000000" font-family="sans-serif" font-size="6.6" lengthAdjust="spacingAndGlyphs" textLength="138.6" x="49.5" y="428.8919">Ellipse(position:Vertex2D, radius:double)</text><line style="stroke: #A80036; stroke-width: 0.6000000238418579; stroke-dasharray: 1.0,2.0;" x1="38.1" x2="191.1" y1="432.8485" y2="432.8485"/><ellipse cx="44.1" cy="439.9899" fill="#84BE84" rx="1.8" ry="1.8" style="stroke: #038048; stroke-width: 0.6000000238418579;"/><text fill="#000000" font-family="sans-serif" font-size="6.6" lengthAdjust="spacingAndGlyphs" textLength="127.2" x="49.5" y="441.3747">scale(xFactor:double, yFactor:double)</text><ellipse cx="44.1" cy="447.6727" fill="#84BE84" rx="1.8" ry="1.8" style="stroke: #038048; stroke-width: 0.6000000238418579;"/><text fill="#000000" font-family="sans-serif" font-size="6.6" lengthAdjust="spacingAndGlyphs" textLength="58.8" x="49.5" y="449.0575">getWidth():double</text><ellipse cx="44.1" cy="455.3555" fill="#84BE84" rx="1.8" ry="1.8" style="stroke: #038048; stroke-width: 0.6000000238418579;"/><text fill="#000000" font-family="sans-serif" font-size="6.6" lengthAdjust="spacingAndGlyphs" textLength="62.4" x="49.5" y="456.7404">getHeight():double</text><ellipse cx="44.1" cy="463.0383" fill="#84BE84" rx="1.8" ry="1.8" style="stroke: #038048; stroke-width: 0.6000000238418579;"/><text fill="#000000" font-family="sans-serif" font-size="6.6" lengthAdjust="spacingAndGlyphs" textLength="54.6" x="49.5" y="464.4232">toString():String</text><rect fill="#FEFECE" filter="url(#f1)" height="102.7453" style="stroke: #A80036; stroke-width: 0.9000000357627869;" width="162.6" x="783.3" y="211.8"/><ellipse cx="850.35" cy="221.4" fill="#A9DCDF" rx="6.6" ry="6.6" style="stroke: #A80036; stroke-width: 0.6000000238418579;"/><path d="M850.4157,218.6063 L849.7219,221.6531 L851.1188,221.6531 L850.4157,218.6063 Z M849.525,217.2656 L851.3157,217.2656 L853.3313,224.7 L851.8594,224.7 L851.4,222.8625 L849.4313,222.8625 L848.9813,224.7 L847.5188,224.7 L849.525,217.2656 Z "/><text fill="#000000" font-family="sans-serif" font-size="7.2" font-style="italic" lengthAdjust="spacingAndGlyphs" textLength="23.4" x="862.65" y="223.8926">Figure</text><line style="stroke: #A80036; stroke-width: 0.9000000357627869;" x1="783.9" x2="945.3" y1="231" y2="231"/><ellipse cx="789.9" cy="238.1414" fill="none" rx="1.8" ry="1.8" style="stroke: #038048; stroke-width: 0.6000000238418579;"/><text fill="#000000" font-family="sans-serif" font-size="6.6" lengthAdjust="spacingAndGlyphs" textLength="90.6" x="795.3" y="239.5263">DEFAULT_X_COORD:double</text><ellipse cx="789.9" cy="245.8242" fill="none" rx="1.8" ry="1.8" style="stroke: #038048; stroke-width: 0.6000000238418579;"/><text fill="#000000" font-family="sans-serif" font-size="6.6" lengthAdjust="spacingAndGlyphs" textLength="90.6" x="795.3" y="247.2091">DEFAULT_Y_COORD:double</text><polygon fill="none" points="789.9,250.507,792.3,252.907,789.9,255.307,787.5,252.907" style="stroke: #B38D22; stroke-width: 0.6000000238418579;"/><text fill="#000000" font-family="sans-serif" font-size="6.6" lengthAdjust="spacingAndGlyphs" textLength="54.6" x="795.3" y="254.8919">center:Vertex2D</text><polygon fill="none" points="789.9,258.1899,792.3,260.5899,789.9,262.9899,787.5,260.5899" style="stroke: #B38D22; stroke-width: 0.6000000238418579;"/><text fill="#000000" font-family="sans-serif" font-size="6.6" lengthAdjust="spacingAndGlyphs" textLength="100.8" x="795.3" y="262.5747">vertices:ArrayList&lt;Vertex2D&gt;</text><line style="stroke: #A80036; stroke-width: 0.6000000238418579;" x1="783.9" x2="945.3" y1="266.5313" y2="266.5313"/><ellipse cx="789.9" cy="273.6727" fill="#84BE84" rx="1.8" ry="1.8" style="stroke: #038048; stroke-width: 0.6000000238418579;"/><text fill="#000000" font-family="sans-serif" font-size="6.6" lengthAdjust="spacingAndGlyphs" textLength="80.4" x="795.3" y="275.0575">Figure(center:Vertex2D)</text><line style="stroke: #A80036; stroke-width: 0.6000000238418579; stroke-dasharray: 1.0,2.0;" x1="783.9" x2="945.3" y1="279.0141" y2="279.0141"/><rect fill="#F24D5C" height="3.6" style="stroke: #C82930; stroke-width: 0.6000000238418579;" width="3.6" x="788.1" y="284.3555"/><text fill="#000000" font-family="sans-serif" font-size="6.6" lengthAdjust="spacingAndGlyphs" textLength="147" x="795.3" y="287.5403">addVerticesToList(newVertices:Vertex2D...)</text><ellipse cx="789.9" cy="293.8383" fill="#84BE84" rx="1.8" ry="1.8" style="stroke: #038048; stroke-width: 0.6000000238418579;"/><text fill="#000000" font-family="sans-serif" font-size="6.6" lengthAdjust="spacingAndGlyphs" textLength="102.6" x="795.3" y="295.2232">moveBy(dx:double, dy:double)</text><ellipse cx="789.9" cy="301.5211" fill="#84BE84" rx="1.8" ry="1.8" style="stroke: #038048; stroke-width: 0.6000000238418579;"/><text fill="#000000" font-family="sans-serif" font-size="6.6" lengthAdjust="spacingAndGlyphs" textLength="71.4" x="795.3" y="302.906">getCenter():Vertex2D</text><ellipse cx="789.9" cy="309.2039" fill="#84BE84" rx="1.8" ry="1.8" style="stroke: #038048; stroke-width: 0.6000000238418579;"/><text fill="#000000" font-family="sans-serif" font-size="6.6" lengthAdjust="spacingAndGlyphs" textLength="85.2" x="795.3" y="310.5888">getVertex(n:int):Vertex2D</text><rect fill="#FEFECE" filter="url(#f1)" height="87.3797" style="stroke: #A80036; stroke-width: 0.9000000357627869;" width="142.8" x="957.6" y="381"/><ellipse cx="1018.95" cy="390.6" fill="#ADD1B2" rx="6.6" ry="6.6" style="stroke: #A80036; stroke-width: 0.6000000238418579;"/><path d="M1020.7313,393.9844 Q1020.3844,394.1625 1020,394.2516 Q1019.6157,394.3406 1019.1938,394.3406 Q1017.6938,394.3406 1016.9016,393.3516 Q1016.1094,392.3625 1016.1094,390.4875 Q1016.1094,388.6125 1016.9016,387.6188 Q1017.6938,386.625 1019.1938,386.625 Q1019.6157,386.625 1020.0047,386.7188 Q1020.3938,386.8125 1020.7313,386.9906 L1020.7313,388.6219 Q1020.3563,388.275 1020,388.111 Q1019.6438,387.9469 1019.2688,387.9469 Q1018.4625,387.9469 1018.05,388.5891 Q1017.6375,389.2313 1017.6375,390.4875 Q1017.6375,391.7438 1018.05,392.386 Q1018.4625,393.0281 1019.2688,393.0281 Q1019.6438,393.0281 1020,392.8641 Q1020.3563,392.7 1020.7313,392.3531 L1020.7313,393.9844 Z "/><text fill="#000000" font-family="sans-serif" font-size="7.2" lengthAdjust="spacingAndGlyphs" textLength="15" x="1031.25" y="393.0926">Line</text><line style="stroke: #A80036; stroke-width: 0.9000000357627869;" x1="958.2" x2="1099.8" y1="400.2" y2="400.2"/><rect fill="none" height="3.6" style="stroke: #C82930; stroke-width: 0.6000000238418579;" width="3.6" x="962.4" y="405.5414"/><text fill="#000000" font-family="sans-serif" font-size="6.6" lengthAdjust="spacingAndGlyphs" textLength="40.8" x="969.6" y="408.7263">v0:Vertex2D</text><rect fill="none" height="3.6" style="stroke: #C82930; stroke-width: 0.6000000238418579;" width="3.6" x="962.4" y="413.2242"/><text fill="#000000" font-family="sans-serif" font-size="6.6" lengthAdjust="spacingAndGlyphs" textLength="40.8" x="969.6" y="416.4091">v1:Vertex2D</text><line style="stroke: #A80036; stroke-width: 0.6000000238418579;" x1="958.2" x2="1099.8" y1="420.3656" y2="420.3656"/><ellipse cx="964.2" cy="427.507" fill="#84BE84" rx="1.8" ry="1.8" style="stroke: #038048; stroke-width: 0.6000000238418579;"/><text fill="#000000" font-family="sans-serif" font-size="6.6" lengthAdjust="spacingAndGlyphs" textLength="105" x="969.6" y="428.8919">Line(v0:Vertex2D, v1:Vertex2D)</text><line style="stroke: #A80036; stroke-width: 0.6000000238418579; stroke-dasharray: 1.0,2.0;" x1="958.2" x2="1099.8" y1="432.8485" y2="432.8485"/><rect fill="#F24D5C" height="3.6" style="stroke: #C82930; stroke-width: 0.6000000238418579;" width="3.6" x="962.4" y="438.1899"/><text fill="#000000" font-family="sans-serif" font-size="6.6" lengthAdjust="spacingAndGlyphs" textLength="67.8" x="969.6" y="441.3747">updateCenterPoint()</text><ellipse cx="964.2" cy="447.6727" fill="#84BE84" rx="1.8" ry="1.8" style="stroke: #038048; stroke-width: 0.6000000238418579;"/><text fill="#000000" font-family="sans-serif" font-size="6.6" lengthAdjust="spacingAndGlyphs" textLength="69" x="969.6" y="449.0575">rotate(angle:double)</text><ellipse cx="964.2" cy="455.3555" fill="#84BE84" rx="1.8" ry="1.8" style="stroke: #038048; stroke-width: 0.6000000238418579;"/><text fill="#000000" font-family="sans-serif" font-size="6.6" lengthAdjust="spacingAndGlyphs" textLength="127.2" x="969.6" y="456.7404">scale(xFactor:double, yFactor:double)</text><ellipse cx="964.2" cy="463.0383" fill="#84BE84" rx="1.8" ry="1.8" style="stroke: #038048; stroke-width: 0.6000000238418579;"/><text fill="#000000" font-family="sans-serif" font-size="6.6" lengthAdjust="spacingAndGlyphs" textLength="54.6" x="969.6" y="464.4232">toString():String</text><rect fill="#FEFECE" filter="url(#f1)" height="125.7938" style="stroke: #A80036; stroke-width: 0.9000000357627869;" width="201.6" x="1121.4" y="361.8"/><ellipse cx="1204.65" cy="371.4" fill="#ADD1B2" rx="6.6" ry="6.6" style="stroke: #A80036; stroke-width: 0.6000000238418579;"/><path d="M1206.4313,374.7844 Q1206.0844,374.9625 1205.7,375.0516 Q1205.3157,375.1406 1204.8938,375.1406 Q1203.3938,375.1406 1202.6016,374.1516 Q1201.8094,373.1625 1201.8094,371.2875 Q1201.8094,369.4125 1202.6016,368.4188 Q1203.3938,367.425 1204.8938,367.425 Q1205.3157,367.425 1205.7047,367.5188 Q1206.0938,367.6125 1206.4313,367.7906 L1206.4313,369.4219 Q1206.0563,369.075 1205.7,368.911 Q1205.3438,368.7469 1204.9688,368.7469 Q1204.1625,368.7469 1203.75,369.3891 Q1203.3375,370.0313 1203.3375,371.2875 Q1203.3375,372.5438 1203.75,373.186 Q1204.1625,373.8281 1204.9688,373.8281 Q1205.3438,373.8281 1205.7,373.6641 Q1206.0563,373.5 1206.4313,373.1531 L1206.4313,374.7844 Z "/><text fill="#000000" font-family="sans-serif" font-size="7.2" lengthAdjust="spacingAndGlyphs" textLength="30" x="1216.95" y="373.8926">Triangle</text><line style="stroke: #A80036; stroke-width: 0.9000000357627869;" x1="1122" x2="1322.4001" y1="381" y2="381"/><rect fill="none" height="3.6" style="stroke: #C82930; stroke-width: 0.6000000238418579;" width="3.6" x="1126.2" y="386.3414"/><text fill="#000000" font-family="sans-serif" font-size="6.6" lengthAdjust="spacingAndGlyphs" textLength="40.8" x="1133.4" y="389.5263">v0:Vertex2D</text><rect fill="none" height="3.6" style="stroke: #C82930; stroke-width: 0.6000000238418579;" width="3.6" x="1126.2" y="394.0242"/><text fill="#000000" font-family="sans-serif" font-size="6.6" lengthAdjust="spacingAndGlyphs" textLength="40.8" x="1133.4" y="397.2091">v1:Vertex2D</text><rect fill="none" height="3.6" style="stroke: #C82930; stroke-width: 0.6000000238418579;" width="3.6" x="1126.2" y="401.707"/><text fill="#000000" font-family="sans-serif" font-size="6.6" lengthAdjust="spacingAndGlyphs" textLength="40.8" x="1133.4" y="404.8919">v2:Vertex2D</text><rect fill="none" height="3.6" style="stroke: #C82930; stroke-width: 0.6000000238418579;" width="3.6" x="1126.2" y="409.3899"/><text fill="#000000" font-family="sans-serif" font-size="6.6" lengthAdjust="spacingAndGlyphs" textLength="43.2" x="1133.4" y="412.5747">width:double</text><rect fill="none" height="3.6" style="stroke: #C82930; stroke-width: 0.6000000238418579;" width="3.6" x="1126.2" y="417.0727"/><text fill="#000000" font-family="sans-serif" font-size="6.6" lengthAdjust="spacingAndGlyphs" textLength="46.2" x="1133.4" y="420.2575">height:double</text><line style="stroke: #A80036; stroke-width: 0.6000000238418579;" x1="1122" x2="1322.4001" y1="424.2141" y2="424.2141"/><ellipse cx="1128" cy="431.3555" fill="#84BE84" rx="1.8" ry="1.8" style="stroke: #038048; stroke-width: 0.6000000238418579;"/><text fill="#000000" font-family="sans-serif" font-size="6.6" lengthAdjust="spacingAndGlyphs" textLength="186" x="1133.4" y="432.7403">Triangle(center:Vertex2D, width:double, height:double)</text><ellipse cx="1128" cy="439.0383" fill="#84BE84" rx="1.8" ry="1.8" style="stroke: #038048; stroke-width: 0.6000000238418579;"/><text fill="#000000" font-family="sans-serif" font-size="6.6" lengthAdjust="spacingAndGlyphs" textLength="164.4" x="1133.4" y="440.4232">Triangle(v0:Vertex2D, v1:Vertex2D, v2:Vertex2D)</text><line style="stroke: #A80036; stroke-width: 0.6000000238418579; stroke-dasharray: 1.0,2.0;" x1="1122" x2="1322.4001" y1="444.3797" y2="444.3797"/><rect fill="#F24D5C" height="3.6" style="stroke: #C82930; stroke-width: 0.6000000238418579;" width="3.6" x="1126.2" y="449.7211"/><text fill="#000000" font-family="sans-serif" font-size="6.6" lengthAdjust="spacingAndGlyphs" textLength="102.6" x="1133.4" y="452.906">calculateVerticesFromCenter()</text><rect fill="#F24D5C" height="3.6" style="stroke: #C82930; stroke-width: 0.6000000238418579;" width="3.6" x="1126.2" y="457.4039"/><text fill="#000000" font-family="sans-serif" font-size="6.6" lengthAdjust="spacingAndGlyphs" textLength="67.8" x="1133.4" y="460.5888">updateCenterPoint()</text><ellipse cx="1128" cy="466.8867" fill="#84BE84" rx="1.8" ry="1.8" style="stroke: #038048; stroke-width: 0.6000000238418579;"/><text fill="#000000" font-family="sans-serif" font-size="6.6" lengthAdjust="spacingAndGlyphs" textLength="69" x="1133.4" y="468.2716">rotate(angle:double)</text><ellipse cx="1128" cy="474.5696" fill="#84BE84" rx="1.8" ry="1.8" style="stroke: #038048; stroke-width: 0.6000000238418579;"/><text fill="#000000" font-family="sans-serif" font-size="6.6" lengthAdjust="spacingAndGlyphs" textLength="127.2" x="1133.4" y="475.9544">scale(xFactor:double, yFactor:double)</text><ellipse cx="1128" cy="482.2524" fill="#84BE84" rx="1.8" ry="1.8" style="stroke: #038048; stroke-width: 0.6000000238418579;"/><text fill="#000000" font-family="sans-serif" font-size="6.6" lengthAdjust="spacingAndGlyphs" textLength="54.6" x="1133.4" y="483.6372">toString():String</text><rect fill="#FEFECE" filter="url(#f1)" height="148.8422" style="stroke: #A80036; stroke-width: 0.9000000357627869;" width="231" x="540.3" y="350.4"/><ellipse cx="634.35" cy="360" fill="#ADD1B2" rx="6.6" ry="6.6" style="stroke: #A80036; stroke-width: 0.6000000238418579;"/><path d="M636.1313,363.3844 Q635.7844,363.5625 635.4,363.6516 Q635.0157,363.7406 634.5938,363.7406 Q633.0938,363.7406 632.3016,362.7516 Q631.5094,361.7625 631.5094,359.8875 Q631.5094,358.0125 632.3016,357.0188 Q633.0938,356.025 634.5938,356.025 Q635.0157,356.025 635.4047,356.1188 Q635.7938,356.2125 636.1313,356.3906 L636.1313,358.0219 Q635.7563,357.675 635.4,357.511 Q635.0438,357.3469 634.6688,357.3469 Q633.8625,357.3469 633.45,357.9891 Q633.0375,358.6313 633.0375,359.8875 Q633.0375,361.1438 633.45,361.786 Q633.8625,362.4281 634.6688,362.4281 Q635.0438,362.4281 635.4,362.2641 Q635.7563,362.1 636.1313,361.7531 L636.1313,363.3844 Z "/><text fill="#000000" font-family="sans-serif" font-size="7.2" lengthAdjust="spacingAndGlyphs" textLength="37.8" x="646.65" y="362.4926">Rectangle</text><line style="stroke: #A80036; stroke-width: 0.9000000357627869;" x1="540.9" x2="770.7" y1="369.6" y2="369.6"/><rect fill="none" height="3.6" style="stroke: #C82930; stroke-width: 0.6000000238418579;" width="3.6" x="545.1" y="374.9414"/><text fill="#000000" font-family="sans-serif" font-size="6.6" lengthAdjust="spacingAndGlyphs" textLength="40.8" x="552.3" y="378.1263">v0:Vertex2D</text><rect fill="none" height="3.6" style="stroke: #C82930; stroke-width: 0.6000000238418579;" width="3.6" x="545.1" y="382.6242"/><text fill="#000000" font-family="sans-serif" font-size="6.6" lengthAdjust="spacingAndGlyphs" textLength="40.8" x="552.3" y="385.8091">v1:Vertex2D</text><rect fill="none" height="3.6" style="stroke: #C82930; stroke-width: 0.6000000238418579;" width="3.6" x="545.1" y="390.307"/><text fill="#000000" font-family="sans-serif" font-size="6.6" lengthAdjust="spacingAndGlyphs" textLength="40.8" x="552.3" y="393.4919">v3:Vertex2D</text><rect fill="none" height="3.6" style="stroke: #C82930; stroke-width: 0.6000000238418579;" width="3.6" x="545.1" y="397.9899"/><text fill="#000000" font-family="sans-serif" font-size="6.6" lengthAdjust="spacingAndGlyphs" textLength="40.8" x="552.3" y="401.1747">v3:Vertex2D</text><rect fill="none" height="3.6" style="stroke: #C82930; stroke-width: 0.6000000238418579;" width="3.6" x="545.1" y="405.6727"/><text fill="#000000" font-family="sans-serif" font-size="6.6" lengthAdjust="spacingAndGlyphs" textLength="43.2" x="552.3" y="408.8575">width:double</text><rect fill="none" height="3.6" style="stroke: #C82930; stroke-width: 0.6000000238418579;" width="3.6" x="545.1" y="413.3555"/><text fill="#000000" font-family="sans-serif" font-size="6.6" lengthAdjust="spacingAndGlyphs" textLength="46.2" x="552.3" y="416.5403">height:double</text><line style="stroke: #A80036; stroke-width: 0.6000000238418579;" x1="540.9" x2="770.7" y1="420.4969" y2="420.4969"/><ellipse cx="546.9" cy="427.6383" fill="#84BE84" rx="1.8" ry="1.8" style="stroke: #038048; stroke-width: 0.6000000238418579;"/><text fill="#000000" font-family="sans-serif" font-size="6.6" lengthAdjust="spacingAndGlyphs" textLength="191.4" x="552.3" y="429.0232">Rectangle(center:Vertex2D, width:double, height:double)</text><ellipse cx="546.9" cy="435.3211" fill="#84BE84" rx="1.8" ry="1.8" style="stroke: #038048; stroke-width: 0.6000000238418579;"/><text fill="#000000" font-family="sans-serif" font-size="6.6" lengthAdjust="spacingAndGlyphs" textLength="215.4" x="552.3" y="436.706">Rectangle(v0:Vertex2D, v1:Vertex2D, v2:Vertex2D, v3:Vertex2D)</text><line style="stroke: #A80036; stroke-width: 0.6000000238418579; stroke-dasharray: 1.0,2.0;" x1="540.9" x2="770.7" y1="440.6625" y2="440.6625"/><rect fill="#F24D5C" height="3.6" style="stroke: #C82930; stroke-width: 0.6000000238418579;" width="3.6" x="545.1" y="446.0039"/><text fill="#000000" font-family="sans-serif" font-size="6.6" lengthAdjust="spacingAndGlyphs" textLength="102.6" x="552.3" y="449.1888">calculateVerticesFromCenter()</text><rect fill="#F24D5C" height="3.6" style="stroke: #C82930; stroke-width: 0.6000000238418579;" width="3.6" x="545.1" y="453.6867"/><text fill="#000000" font-family="sans-serif" font-size="6.6" lengthAdjust="spacingAndGlyphs" textLength="67.8" x="552.3" y="456.8716">updateCenterPoint()</text><rect fill="#F24D5C" height="3.6" style="stroke: #C82930; stroke-width: 0.6000000238418579;" width="3.6" x="545.1" y="461.3695"/><text fill="#000000" font-family="sans-serif" font-size="6.6" lengthAdjust="spacingAndGlyphs" textLength="52.8" x="552.3" y="464.5544">calculateWidth()</text><rect fill="#F24D5C" height="3.6" style="stroke: #C82930; stroke-width: 0.6000000238418579;" width="3.6" x="545.1" y="469.0524"/><text fill="#000000" font-family="sans-serif" font-size="6.6" lengthAdjust="spacingAndGlyphs" textLength="56.4" x="552.3" y="472.2372">calculateHeight()</text><ellipse cx="546.9" cy="478.5352" fill="#84BE84" rx="1.8" ry="1.8" style="stroke: #038048; stroke-width: 0.6000000238418579;"/><text fill="#000000" font-family="sans-serif" font-size="6.6" lengthAdjust="spacingAndGlyphs" textLength="69" x="552.3" y="479.92">rotate(angle:double)</text><ellipse cx="546.9" cy="486.218" fill="#84BE84" rx="1.8" ry="1.8" style="stroke: #038048; stroke-width: 0.6000000238418579;"/><text fill="#000000" font-family="sans-serif" font-size="6.6" lengthAdjust="spacingAndGlyphs" textLength="127.2" x="552.3" y="487.6029">scale(xFactor:double, yFactor:double)</text><ellipse cx="546.9" cy="493.9008" fill="#84BE84" rx="1.8" ry="1.8" style="stroke: #038048; stroke-width: 0.6000000238418579;"/><text fill="#000000" font-family="sans-serif" font-size="6.6" lengthAdjust="spacingAndGlyphs" textLength="54.6" x="552.3" y="495.2857">toString():String</text><rect fill="#FEFECE" filter="url(#f1)" height="118.1109" style="stroke: #A80036; stroke-width: 0.9000000357627869;" width="144" x="792.6" y="365.7"/><ellipse cx="848.55" cy="375.3" fill="#ADD1B2" rx="6.6" ry="6.6" style="stroke: #A80036; stroke-width: 0.6000000238418579;"/><path d="M850.3313,378.6844 Q849.9844,378.8625 849.6,378.9516 Q849.2157,379.0406 848.7938,379.0406 Q847.2938,379.0406 846.5016,378.0516 Q845.7094,377.0625 845.7094,375.1875 Q845.7094,373.3125 846.5016,372.3188 Q847.2938,371.325 848.7938,371.325 Q849.2157,371.325 849.6047,371.4188 Q849.9938,371.5125 850.3313,371.6906 L850.3313,373.3219 Q849.9563,372.975 849.6,372.811 Q849.2438,372.6469 848.8688,372.6469 Q848.0625,372.6469 847.65,373.2891 Q847.2375,373.9313 847.2375,375.1875 Q847.2375,376.4438 847.65,377.086 Q848.0625,377.7281 848.8688,377.7281 Q849.2438,377.7281 849.6,377.5641 Q849.9563,377.4 850.3313,377.0531 L850.3313,378.6844 Z "/><text fill="#000000" font-family="sans-serif" font-size="7.2" lengthAdjust="spacingAndGlyphs" textLength="27" x="860.85" y="377.7926">Square</text><line style="stroke: #A80036; stroke-width: 0.9000000357627869;" x1="793.2" x2="936" y1="384.9" y2="384.9"/><rect fill="none" height="3.6" style="stroke: #C82930; stroke-width: 0.6000000238418579;" width="3.6" x="797.4" y="390.2414"/><text fill="#000000" font-family="sans-serif" font-size="6.6" lengthAdjust="spacingAndGlyphs" textLength="40.8" x="804.6" y="393.4263">v0:Vertex2D</text><rect fill="none" height="3.6" style="stroke: #C82930; stroke-width: 0.6000000238418579;" width="3.6" x="797.4" y="397.9242"/><text fill="#000000" font-family="sans-serif" font-size="6.6" lengthAdjust="spacingAndGlyphs" textLength="40.8" x="804.6" y="401.1091">v1:Vertex2D</text><rect fill="none" height="3.6" style="stroke: #C82930; stroke-width: 0.6000000238418579;" width="3.6" x="797.4" y="405.607"/><text fill="#000000" font-family="sans-serif" font-size="6.6" lengthAdjust="spacingAndGlyphs" textLength="40.8" x="804.6" y="408.7919">v3:Vertex2D</text><rect fill="none" height="3.6" style="stroke: #C82930; stroke-width: 0.6000000238418579;" width="3.6" x="797.4" y="413.2899"/><text fill="#000000" font-family="sans-serif" font-size="6.6" lengthAdjust="spacingAndGlyphs" textLength="40.8" x="804.6" y="416.4747">v3:Vertex2D</text><rect fill="none" height="3.6" style="stroke: #C82930; stroke-width: 0.6000000238418579;" width="3.6" x="797.4" y="420.9727"/><text fill="#000000" font-family="sans-serif" font-size="6.6" lengthAdjust="spacingAndGlyphs" textLength="62.4" x="804.6" y="424.1575">sideLength:double</text><line style="stroke: #A80036; stroke-width: 0.6000000238418579;" x1="793.2" x2="936" y1="428.1141" y2="428.1141"/><ellipse cx="799.2" cy="435.2555" fill="#84BE84" rx="1.8" ry="1.8" style="stroke: #038048; stroke-width: 0.6000000238418579;"/><text fill="#000000" font-family="sans-serif" font-size="6.6" lengthAdjust="spacingAndGlyphs" textLength="128.4" x="804.6" y="436.6403">Square(center:Vertex2D, side:double)</text><line style="stroke: #A80036; stroke-width: 0.6000000238418579; stroke-dasharray: 1.0,2.0;" x1="793.2" x2="936" y1="440.5969" y2="440.5969"/><rect fill="#F24D5C" height="3.6" style="stroke: #C82930; stroke-width: 0.6000000238418579;" width="3.6" x="797.4" y="445.9383"/><text fill="#000000" font-family="sans-serif" font-size="6.6" lengthAdjust="spacingAndGlyphs" textLength="67.8" x="804.6" y="449.1232">updateCenterPoint()</text><ellipse cx="799.2" cy="455.4211" fill="#84BE84" rx="1.8" ry="1.8" style="stroke: #038048; stroke-width: 0.6000000238418579;"/><text fill="#000000" font-family="sans-serif" font-size="6.6" lengthAdjust="spacingAndGlyphs" textLength="102.6" x="804.6" y="456.806">moveBy(dx:double, dy:double)</text><ellipse cx="799.2" cy="463.1039" fill="#84BE84" rx="1.8" ry="1.8" style="stroke: #038048; stroke-width: 0.6000000238418579;"/><text fill="#000000" font-family="sans-serif" font-size="6.6" lengthAdjust="spacingAndGlyphs" textLength="69" x="804.6" y="464.4888">rotate(angle:double)</text><ellipse cx="799.2" cy="470.7867" fill="#84BE84" rx="1.8" ry="1.8" style="stroke: #038048; stroke-width: 0.6000000238418579;"/><text fill="#000000" font-family="sans-serif" font-size="6.6" lengthAdjust="spacingAndGlyphs" textLength="127.2" x="804.6" y="472.1716">scale(xFactor:double, yFactor:double)</text><ellipse cx="799.2" cy="478.4696" fill="#84BE84" rx="1.8" ry="1.8" style="stroke: #038048; stroke-width: 0.6000000238418579;"/><text fill="#000000" font-family="sans-serif" font-size="6.6" lengthAdjust="spacingAndGlyphs" textLength="54.6" x="804.6" y="479.8544">toString():String</text><path d="M371.2536,169.0782 C372.054,169.9548 372.9024,170.7966 373.8,171.6 C383.595,180.3654 481.2996,168.7662 492,176.4 C508.2018,187.9584 516.591,208.5276 520.9356,226.6632 " fill="none" style="stroke: #A80036; stroke-width: 0.6000000238418579;"/><ellipse cx="368.7949" cy="165.644" fill="#FFFFFF" rx="4.8" ry="4.8" style="stroke: #A80036; stroke-width: 0.6000000238418579;"/><line style="stroke: #A80036; stroke-width: 0.6000000238418579;" x1="371.5886" x2="366.0012" y1="169.5473" y2="161.7408"/><line style="stroke: #A80036; stroke-width: 0.6000000238418579;" x1="364.8917" x2="372.6982" y1="168.4377" y2="162.8503"/><path d="M353.2848,97.632 C304.1484,101.7768 71.4348,124.0044 27.6,176.4 C11.7132,195.3894 14.3489,225.7752 18.206,244.9086 " fill="none" style="stroke: #A80036; stroke-width: 0.6000000238418579;"/><ellipse cx="352.8669" cy="97.7022" fill="#FFFFFF" rx="4.8" ry="4.8" style="stroke: #A80036; stroke-width: 0.6000000238418579;"/><line style="stroke: #A80036; stroke-width: 0.6000000238418579;" x1="348.1338" x2="357.6" y1="98.5008" y2="96.9036"/><line style="stroke: #A80036; stroke-width: 0.6000000238418579;" x1="352.0683" x2="353.6655" y1="92.9691" y2="102.4353"/><path d="M821.664,209.3022 C809.652,197.0766 795.846,185.1228 781.2,176.4 C729.6,145.665 665.658,126.4014 611.538,114.5514 " fill="none" style="stroke: #A80036; stroke-width: 0.6000000238418579; stroke-dasharray: 7.0,7.0;"/><polygon fill="#A80036" points="823.884,211.587,821.8409,206.0421,821.7929,209.4359,818.3991,209.3879,823.884,211.587" style="stroke: #A80036; stroke-width: 0.6000000238418579;"/><path d="M367.641,228.567 C390.5916,205.2792 421.4562,173.961 447.3258,147.711 " fill="none" style="stroke: #A80036; stroke-width: 0.6000000238418579; stroke-dasharray: 7.0,7.0;"/><polygon fill="#A80036" points="365.445,230.7954,370.9449,228.634,367.5509,228.6587,367.5262,225.2647,365.445,230.7954" style="stroke: #A80036; stroke-width: 0.6000000238418579;"/><path d="M314.9262,306.309 C302.0028,334.8792 285.3576,371.6784 274.1286,396.5028 " fill="none" style="stroke: #A80036; stroke-width: 0.6000000238418579;"/><polygon fill="none" points="311.1708,304.4208,319.9434,295.218,318.8244,307.8828,311.1708,304.4208" style="stroke: #A80036; stroke-width: 0.6000000238418579;"/><path d="M353.4726,306.3066 C365.0784,331.965 379.6878,364.2612 390.6792,388.5606 " fill="none" style="stroke: #A80036; stroke-width: 0.6000000238418579;"/><polygon fill="none" points="349.5756,307.8828,348.4566,295.218,357.2292,304.4208,349.5756,307.8828" style="stroke: #A80036; stroke-width: 0.6000000238418579;"/><path d="M288.855,302.6994 C283.4328,306.819 277.8762,310.809 272.4,314.4 C243.0792,333.6288 231.3942,330.9804 202.2,350.4 C188.5398,359.4864 174.5868,370.3806 161.9478,380.9742 " fill="none" style="stroke: #A80036; stroke-width: 0.6000000238418579;"/><polygon fill="none" points="286.3866,299.298,298.4226,295.2018,291.5676,305.9094,286.3866,299.298" style="stroke: #A80036; stroke-width: 0.6000000238418579;"/><path d="M925.206,322.8678 C944.85,342.045 966.264,362.9508 984.51,380.7666 " fill="none" style="stroke: #A80036; stroke-width: 0.6000000238418579;"/><polygon fill="none" points="922.272,325.8714,916.62,314.4834,928.14,319.8606,922.272,325.8714" style="stroke: #A80036; stroke-width: 0.6000000238418579;"/><path d="M957.822,290.4252 C1004.94,305.4324 1062.336,326.0442 1111.2,350.4 C1118.19,353.8842 1125.264,357.7326 1132.284,361.788 " fill="none" style="stroke: #A80036; stroke-width: 0.6000000238418579;"/><polygon fill="none" points="956.262,294.3378,946.074,286.7316,958.782,286.3242,956.262,294.3378" style="stroke: #A80036; stroke-width: 0.6000000238418579;"/><path d="M789.012,321.8022 C776.976,331.0548 764.382,340.734 751.95,350.292 " fill="none" style="stroke: #A80036; stroke-width: 0.6000000238418579;"/><polygon fill="none" points="786.462,318.4668,798.534,314.4834,791.58,325.1262,786.462,318.4668" style="stroke: #A80036; stroke-width: 0.6000000238418579;"/><path d="M864.6,326.5776 C864.6,339.4398 864.6,352.9272 864.6,365.6316 " fill="none" style="stroke: #A80036; stroke-width: 0.6000000238418579;"/><polygon fill="none" points="860.4,326.4834,864.6,314.4834,868.8,326.4834,860.4,326.4834" style="stroke: #A80036; stroke-width: 0.6000000238418579;"/></g></svg>