<?xml version="1.0" encoding="UTF-8" standalone="yes"?><svg xmlns="http://www.w3.org/2000/svg" xmlns:xlink="http://www.w3.org/1999/xlink" height="863px" style="width:2192px;height:863px;" version="1.1" viewBox="0 0 2192 863" width="2192px"><defs><filter height="300%" id="f1" width="300%" x="-1" y="-1"><feGaussianBlur result="blurOut" stdDeviation="2.0"/><feColorMatrix in="blurOut" result="blurOut2" type="matrix" values="0 0 0 0 0 0 0 0 0 0 0 0 0 0 0 0 0 0 .4 0"/><feOffset dx="4.0" dy="4.0" in="blurOut2" result="blurOut3"/><feBlend in="SourceGraphic" in2="blurOut3" mode="normal"/></filter></defs><g><polygon fill="#FFFFFF" filter="url(#f1)" points="576,32,756,32,763,54.2969,1019,54.2969,1019,270,576,270,576,32" style="stroke: #000000; stroke-width: 2.0;"/><line style="stroke: #000000; stroke-width: 2.0;" x1="576" x2="763" y1="54.2969" y2="54.2969"/><text fill="#000000" font-family="sans-serif" font-size="14" font-weight="bold" lengthAdjust="spacingAndGlyphs" textLength="174" x="579" y="47.9951">se.hig.oodp.lab.model</text><polygon fill="#FFFFFF" filter="url(#f1)" points="30,342,313,342,320,364.2969,804,364.2969,804,805,30,805,30,342" style="stroke: #000000; stroke-width: 2.0;"/><line style="stroke: #000000; stroke-width: 2.0;" x1="30" x2="320" y1="364.2969" y2="364.2969"/><text fill="#000000" font-family="sans-serif" font-size="14" font-weight="bold" lengthAdjust="spacingAndGlyphs" textLength="277" x="33" y="357.9951">se.hig.oodp.lab.model.simplefigure</text><polygon fill="#FFFFFF" filter="url(#f1)" points="844,310,1076,310,1083,332.2969,2185,332.2969,2185,856,844,856,844,310" style="stroke: #000000; stroke-width: 2.0;"/><line style="stroke: #000000; stroke-width: 2.0;" x1="844" x2="1083" y1="332.2969" y2="332.2969"/><text fill="#000000" font-family="sans-serif" font-size="14" font-weight="bold" lengthAdjust="spacingAndGlyphs" textLength="226" x="847" y="325.9951">se.hig.oodp.lab.model.figure</text><rect fill="#FEFECE" filter="url(#f1)" height="171.2422" style="stroke: #A80036; stroke-width: 1.5;" width="375" x="619.5" y="75"/><ellipse cx="774.25" cy="91" fill="#ADD1B2" rx="11" ry="11" style="stroke: #A80036; stroke-width: 1.0;"/><path d="M777.2188,96.6406 Q776.6406,96.9375 776,97.0859 Q775.3594,97.2344 774.6563,97.2344 Q772.1563,97.2344 770.8359,95.5859 Q769.5156,93.9375 769.5156,90.8125 Q769.5156,87.6875 770.8359,86.0313 Q772.1563,84.375 774.6563,84.375 Q775.3594,84.375 776.0078,84.5313 Q776.6563,84.6875 777.2188,84.9844 L777.2188,87.7031 Q776.5938,87.125 776,86.8516 Q775.4063,86.5781 774.7813,86.5781 Q773.4375,86.5781 772.75,87.6484 Q772.0625,88.7188 772.0625,90.8125 Q772.0625,92.9063 772.75,93.9766 Q773.4375,95.0469 774.7813,95.0469 Q775.4063,95.0469 776,94.7734 Q776.5938,94.5 777.2188,93.9219 L777.2188,96.6406 Z "/><text fill="#000000" font-family="sans-serif" font-size="12" lengthAdjust="spacingAndGlyphs" textLength="57" x="794.75" y="95.1543">Vertex2D</text><line style="stroke: #A80036; stroke-width: 1.5;" x1="620.5" x2="993.5" y1="107" y2="107"/><text fill="#000000" font-family="sans-serif" font-size="11" lengthAdjust="spacingAndGlyphs" textLength="52" x="625.5" y="121.2104">-x:double</text><text fill="#000000" font-family="sans-serif" font-size="11" lengthAdjust="spacingAndGlyphs" textLength="52" x="625.5" y="134.0151">-y:double</text><line style="stroke: #A80036; stroke-width: 1.0;" x1="620.5" x2="993.5" y1="140.6094" y2="140.6094"/><text fill="#000000" font-family="sans-serif" font-size="11" lengthAdjust="spacingAndGlyphs" textLength="172" x="625.5" y="154.8198">+Vertex2D(x:double, y:double)</text><line style="stroke: #A80036; stroke-width: 1.0; stroke-dasharray: 1.0,2.0;" x1="620.5" x2="993.5" y1="161.4141" y2="161.4141"/><text fill="#000000" font-family="sans-serif" font-size="11" lengthAdjust="spacingAndGlyphs" textLength="84" x="625.5" y="175.6245">+getX():double</text><text fill="#000000" font-family="sans-serif" font-size="11" lengthAdjust="spacingAndGlyphs" textLength="84" x="625.5" y="188.4292">+getY():double</text><text fill="#000000" font-family="sans-serif" font-size="11" lengthAdjust="spacingAndGlyphs" textLength="235" x="625.5" y="201.2339">+moveBy(dx:double, dy:double):Vertex2D</text><text fill="#000000" font-family="sans-serif" font-size="11" lengthAdjust="spacingAndGlyphs" textLength="258" x="625.5" y="214.0386">+rotate(ref:Vertex2D, angle:double):Vertex2D</text><text fill="#000000" font-family="sans-serif" font-size="11" lengthAdjust="spacingAndGlyphs" textLength="363" x="625.5" y="226.8433">+scale(ref:Vertex2D, x_factor:double, y_factor:double):Vertex2D</text><text fill="#000000" font-family="sans-serif" font-size="11" lengthAdjust="spacingAndGlyphs" textLength="100" x="625.5" y="239.6479">+toString():String</text><rect fill="#FEFECE" filter="url(#f1)" height="107.2188" style="stroke: #A80036; stroke-width: 1.5;" width="194" x="442" y="385"/><ellipse cx="494.75" cy="401" fill="#A9DCDF" rx="11" ry="11" style="stroke: #A80036; stroke-width: 1.0;"/><path d="M494.8594,396.3438 L493.7031,401.4219 L496.0313,401.4219 L494.8594,396.3438 Z M493.375,394.1094 L496.3594,394.1094 L499.7188,406.5 L497.2656,406.5 L496.5,403.4375 L493.2188,403.4375 L492.4688,406.5 L490.0313,406.5 L493.375,394.1094 Z "/><text fill="#000000" font-family="sans-serif" font-size="12" font-style="italic" lengthAdjust="spacingAndGlyphs" textLength="80" x="515.25" y="405.1543">SimpleFigure</text><line style="stroke: #A80036; stroke-width: 1.5;" x1="443" x2="635" y1="417" y2="417"/><text fill="#000000" font-family="sans-serif" font-size="11" lengthAdjust="spacingAndGlyphs" textLength="109" x="448" y="431.2104">#position:Vertex2D</text><line style="stroke: #A80036; stroke-width: 1.0;" x1="443" x2="635" y1="437.8047" y2="437.8047"/><text fill="#000000" font-family="sans-serif" font-size="11" lengthAdjust="spacingAndGlyphs" textLength="182" x="448" y="452.0151">SimpleFigure(position:Vertex2D)</text><line style="stroke: #A80036; stroke-width: 1.0; stroke-dasharray: 1.0,2.0;" x1="443" x2="635" y1="458.6094" y2="458.6094"/><text fill="#000000" font-family="sans-serif" font-size="11" lengthAdjust="spacingAndGlyphs" textLength="180" x="448" y="472.8198">+moveBy(dx:double, dy:double)</text><text fill="#000000" font-family="sans-serif" font-size="11" lengthAdjust="spacingAndGlyphs" textLength="135" x="448" y="485.6245">+getPosition():Vertex2D</text><rect fill="#FEFECE" filter="url(#f1)" height="73.6094" style="stroke: #A80036; stroke-width: 1.5;" width="148" x="349" y="671"/><ellipse cx="402.75" cy="687" fill="#ADD1B2" rx="11" ry="11" style="stroke: #A80036; stroke-width: 1.0;"/><path d="M405.7188,692.6406 Q405.1406,692.9375 404.5,693.0859 Q403.8594,693.2344 403.1563,693.2344 Q400.6563,693.2344 399.3359,691.5859 Q398.0156,689.9375 398.0156,686.8125 Q398.0156,683.6875 399.3359,682.0313 Q400.6563,680.375 403.1563,680.375 Q403.8594,680.375 404.5078,680.5313 Q405.1563,680.6875 405.7188,680.9844 L405.7188,683.7031 Q405.0938,683.125 404.5,682.8516 Q403.9063,682.5781 403.2813,682.5781 Q401.9375,682.5781 401.25,683.6484 Q400.5625,684.7188 400.5625,686.8125 Q400.5625,688.9063 401.25,689.9766 Q401.9375,691.0469 403.2813,691.0469 Q403.9063,691.0469 404.5,690.7734 Q405.0938,690.5 405.7188,689.9219 L405.7188,692.6406 Z "/><text fill="#000000" font-family="sans-serif" font-size="12" lengthAdjust="spacingAndGlyphs" textLength="32" x="423.25" y="691.1543">Point</text><line style="stroke: #A80036; stroke-width: 1.5;" x1="350" x2="496" y1="703" y2="703"/><text fill="#000000" font-family="sans-serif" font-size="11" lengthAdjust="spacingAndGlyphs" textLength="136" x="355" y="717.2104">Point(position:Vertex2D)</text><line style="stroke: #A80036; stroke-width: 1.0; stroke-dasharray: 1.0,2.0;" x1="350" x2="496" y1="723.8047" y2="723.8047"/><text fill="#000000" font-family="sans-serif" font-size="11" lengthAdjust="spacingAndGlyphs" textLength="100" x="355" y="738.0151">+toString():String</text><rect fill="#FEFECE" filter="url(#f1)" height="120.0234" style="stroke: #A80036; stroke-width: 1.5;" width="247" x="532.5" y="648"/><ellipse cx="634.75" cy="664" fill="#ADD1B2" rx="11" ry="11" style="stroke: #A80036; stroke-width: 1.0;"/><path d="M637.7188,669.6406 Q637.1406,669.9375 636.5,670.0859 Q635.8594,670.2344 635.1563,670.2344 Q632.6563,670.2344 631.3359,668.5859 Q630.0156,666.9375 630.0156,663.8125 Q630.0156,660.6875 631.3359,659.0313 Q632.6563,657.375 635.1563,657.375 Q635.8594,657.375 636.5078,657.5313 Q637.1563,657.6875 637.7188,657.9844 L637.7188,660.7031 Q637.0938,660.125 636.5,659.8516 Q635.9063,659.5781 635.2813,659.5781 Q633.9375,659.5781 633.25,660.6484 Q632.5625,661.7188 632.5625,663.8125 Q632.5625,665.9063 633.25,666.9766 Q633.9375,668.0469 635.2813,668.0469 Q635.9063,668.0469 636.5,667.7734 Q637.0938,667.5 637.7188,666.9219 L637.7188,669.6406 Z "/><text fill="#000000" font-family="sans-serif" font-size="12" lengthAdjust="spacingAndGlyphs" textLength="34" x="655.25" y="668.1543">Circle</text><line style="stroke: #A80036; stroke-width: 1.5;" x1="533.5" x2="778.5" y1="680" y2="680"/><text fill="#000000" font-family="sans-serif" font-size="11" lengthAdjust="spacingAndGlyphs" textLength="82" x="538.5" y="694.2104">-radius:double</text><line style="stroke: #A80036; stroke-width: 1.0;" x1="533.5" x2="778.5" y1="700.8047" y2="700.8047"/><text fill="#000000" font-family="sans-serif" font-size="11" lengthAdjust="spacingAndGlyphs" textLength="235" x="538.5" y="715.0151">+Circle(position:Vertex2D, radius:double)</text><line style="stroke: #A80036; stroke-width: 1.0; stroke-dasharray: 1.0,2.0;" x1="533.5" x2="778.5" y1="721.6094" y2="721.6094"/><text fill="#000000" font-family="sans-serif" font-size="11" lengthAdjust="spacingAndGlyphs" textLength="122" x="538.5" y="735.8198">+scale(factor:double)</text><text fill="#000000" font-family="sans-serif" font-size="11" lengthAdjust="spacingAndGlyphs" textLength="115" x="538.5" y="748.6245">+getRadius():double</text><text fill="#000000" font-family="sans-serif" font-size="11" lengthAdjust="spacingAndGlyphs" textLength="100" x="538.5" y="761.4292">+toString():String</text><rect fill="#FEFECE" filter="url(#f1)" height="145.6328" style="stroke: #A80036; stroke-width: 1.5;" width="252" x="62" y="635"/><ellipse cx="163.75" cy="651" fill="#ADD1B2" rx="11" ry="11" style="stroke: #A80036; stroke-width: 1.0;"/><path d="M166.7188,656.6406 Q166.1406,656.9375 165.5,657.0859 Q164.8594,657.2344 164.1563,657.2344 Q161.6563,657.2344 160.3359,655.5859 Q159.0156,653.9375 159.0156,650.8125 Q159.0156,647.6875 160.3359,646.0313 Q161.6563,644.375 164.1563,644.375 Q164.8594,644.375 165.5078,644.5313 Q166.1563,644.6875 166.7188,644.9844 L166.7188,647.7031 Q166.0938,647.125 165.5,646.8516 Q164.9063,646.5781 164.2813,646.5781 Q162.9375,646.5781 162.25,647.6484 Q161.5625,648.7188 161.5625,650.8125 Q161.5625,652.9063 162.25,653.9766 Q162.9375,655.0469 164.2813,655.0469 Q164.9063,655.0469 165.5,654.7734 Q166.0938,654.5 166.7188,653.9219 L166.7188,656.6406 Z "/><text fill="#000000" font-family="sans-serif" font-size="12" lengthAdjust="spacingAndGlyphs" textLength="40" x="184.25" y="655.1543">Ellipse</text><line style="stroke: #A80036; stroke-width: 1.5;" x1="63" x2="313" y1="667" y2="667"/><text fill="#000000" font-family="sans-serif" font-size="11" lengthAdjust="spacingAndGlyphs" textLength="76" x="68" y="681.2104">-width:double</text><text fill="#000000" font-family="sans-serif" font-size="11" lengthAdjust="spacingAndGlyphs" textLength="81" x="68" y="694.0151">-height:double</text><line style="stroke: #A80036; stroke-width: 1.0;" x1="63" x2="313" y1="700.6094" y2="700.6094"/><text fill="#000000" font-family="sans-serif" font-size="11" lengthAdjust="spacingAndGlyphs" textLength="240" x="68" y="714.8198">+Ellipse(position:Vertex2D, radius:double)</text><line style="stroke: #A80036; stroke-width: 1.0; stroke-dasharray: 1.0,2.0;" x1="63" x2="313" y1="721.4141" y2="721.4141"/><text fill="#000000" font-family="sans-serif" font-size="11" lengthAdjust="spacingAndGlyphs" textLength="221" x="68" y="735.6245">+scale(xFactor:double, yFactor:double)</text><text fill="#000000" font-family="sans-serif" font-size="11" lengthAdjust="spacingAndGlyphs" textLength="107" x="68" y="748.4292">+getWidth():double</text><text fill="#000000" font-family="sans-serif" font-size="11" lengthAdjust="spacingAndGlyphs" textLength="113" x="68" y="761.2339">+getHeight():double</text><text fill="#000000" font-family="sans-serif" font-size="11" lengthAdjust="spacingAndGlyphs" textLength="100" x="68" y="774.0386">+toString():String</text><rect fill="#FEFECE" filter="url(#f1)" height="171.2422" style="stroke: #A80036; stroke-width: 1.5;" width="261" x="1278.5" y="353"/><ellipse cx="1385.25" cy="369" fill="#A9DCDF" rx="11" ry="11" style="stroke: #A80036; stroke-width: 1.0;"/><path d="M1385.3594,364.3438 L1384.2031,369.4219 L1386.5313,369.4219 L1385.3594,364.3438 Z M1383.875,362.1094 L1386.8594,362.1094 L1390.2188,374.5 L1387.7656,374.5 L1387,371.4375 L1383.7188,371.4375 L1382.9688,374.5 L1380.5313,374.5 L1383.875,362.1094 Z "/><text fill="#000000" font-family="sans-serif" font-size="12" font-style="italic" lengthAdjust="spacingAndGlyphs" textLength="39" x="1405.75" y="373.1543">Figure</text><line style="stroke: #A80036; stroke-width: 1.5;" x1="1279.5" x2="1538.5" y1="385" y2="385"/><text fill="#000000" font-family="sans-serif" font-size="11" lengthAdjust="spacingAndGlyphs" textLength="160" x="1284.5" y="399.2104">+DEFAULT_X_COORD:double</text><text fill="#000000" font-family="sans-serif" font-size="11" lengthAdjust="spacingAndGlyphs" textLength="160" x="1284.5" y="412.0151">+DEFAULT_Y_COORD:double</text><text fill="#000000" font-family="sans-serif" font-size="11" lengthAdjust="spacingAndGlyphs" textLength="100" x="1284.5" y="424.8198">#center:Vertex2D</text><text fill="#000000" font-family="sans-serif" font-size="11" lengthAdjust="spacingAndGlyphs" textLength="177" x="1284.5" y="437.6245">#vertices:ArrayList&lt;Vertex2D&gt;</text><line style="stroke: #A80036; stroke-width: 1.0;" x1="1279.5" x2="1538.5" y1="444.2188" y2="444.2188"/><text fill="#000000" font-family="sans-serif" font-size="11" lengthAdjust="spacingAndGlyphs" textLength="143" x="1284.5" y="458.4292">+Figure(center:Vertex2D)</text><line style="stroke: #A80036; stroke-width: 1.0; stroke-dasharray: 1.0,2.0;" x1="1279.5" x2="1538.5" y1="465.0234" y2="465.0234"/><text fill="#000000" font-family="sans-serif" font-size="11" lengthAdjust="spacingAndGlyphs" textLength="249" x="1284.5" y="479.2339">-addVerticesToList(newVertices:Vertex2D...)</text><text fill="#000000" font-family="sans-serif" font-size="11" lengthAdjust="spacingAndGlyphs" textLength="180" x="1284.5" y="492.0386">+moveBy(dx:double, dy:double)</text><text fill="#000000" font-family="sans-serif" font-size="11" lengthAdjust="spacingAndGlyphs" textLength="128" x="1284.5" y="504.8433">+getCenter():Vertex2D</text><text fill="#000000" font-family="sans-serif" font-size="11" lengthAdjust="spacingAndGlyphs" textLength="151" x="1284.5" y="517.6479">+getVertex(n:int):Vertex2D</text><rect fill="#FEFECE" filter="url(#f1)" height="145.6328" style="stroke: #A80036; stroke-width: 1.5;" width="233" x="1561.5" y="635"/><ellipse cx="1661.25" cy="651" fill="#ADD1B2" rx="11" ry="11" style="stroke: #A80036; stroke-width: 1.0;"/><path d="M1664.2188,656.6406 Q1663.6406,656.9375 1663,657.0859 Q1662.3594,657.2344 1661.6563,657.2344 Q1659.1563,657.2344 1657.8359,655.5859 Q1656.5156,653.9375 1656.5156,650.8125 Q1656.5156,647.6875 1657.8359,646.0313 Q1659.1563,644.375 1661.6563,644.375 Q1662.3594,644.375 1663.0078,644.5313 Q1663.6563,644.6875 1664.2188,644.9844 L1664.2188,647.7031 Q1663.5938,647.125 1663,646.8516 Q1662.4063,646.5781 1661.7813,646.5781 Q1660.4375,646.5781 1659.75,647.6484 Q1659.0625,648.7188 1659.0625,650.8125 Q1659.0625,652.9063 1659.75,653.9766 Q1660.4375,655.0469 1661.7813,655.0469 Q1662.4063,655.0469 1663,654.7734 Q1663.5938,654.5 1664.2188,653.9219 L1664.2188,656.6406 Z "/><text fill="#000000" font-family="sans-serif" font-size="12" lengthAdjust="spacingAndGlyphs" textLength="25" x="1681.75" y="655.1543">Line</text><line style="stroke: #A80036; stroke-width: 1.5;" x1="1562.5" x2="1793.5" y1="667" y2="667"/><text fill="#000000" font-family="sans-serif" font-size="11" lengthAdjust="spacingAndGlyphs" textLength="72" x="1567.5" y="681.2104">-v0:Vertex2D</text><text fill="#000000" font-family="sans-serif" font-size="11" lengthAdjust="spacingAndGlyphs" textLength="72" x="1567.5" y="694.0151">-v1:Vertex2D</text><line style="stroke: #A80036; stroke-width: 1.0;" x1="1562.5" x2="1793.5" y1="700.6094" y2="700.6094"/><text fill="#000000" font-family="sans-serif" font-size="11" lengthAdjust="spacingAndGlyphs" textLength="184" x="1567.5" y="714.8198">+Line(v0:Vertex2D, v1:Vertex2D)</text><line style="stroke: #A80036; stroke-width: 1.0; stroke-dasharray: 1.0,2.0;" x1="1562.5" x2="1793.5" y1="721.4141" y2="721.4141"/><text fill="#000000" font-family="sans-serif" font-size="11" lengthAdjust="spacingAndGlyphs" textLength="117" x="1567.5" y="735.6245">-updateCenterPoint()</text><text fill="#000000" font-family="sans-serif" font-size="11" lengthAdjust="spacingAndGlyphs" textLength="124" x="1567.5" y="748.4292">+rotate(angle:double)</text><text fill="#000000" font-family="sans-serif" font-size="11" lengthAdjust="spacingAndGlyphs" textLength="221" x="1567.5" y="761.2339">+scale(xFactor:double, yFactor:double)</text><text fill="#000000" font-family="sans-serif" font-size="11" lengthAdjust="spacingAndGlyphs" textLength="100" x="1567.5" y="774.0386">+toString():String</text><rect fill="#FEFECE" filter="url(#f1)" height="209.6563" style="stroke: #A80036; stroke-width: 1.5;" width="331" x="1829.5" y="603"/><ellipse cx="1965.75" cy="619" fill="#ADD1B2" rx="11" ry="11" style="stroke: #A80036; stroke-width: 1.0;"/><path d="M1968.7188,624.6406 Q1968.1406,624.9375 1967.5,625.0859 Q1966.8594,625.2344 1966.1563,625.2344 Q1963.6563,625.2344 1962.3359,623.5859 Q1961.0156,621.9375 1961.0156,618.8125 Q1961.0156,615.6875 1962.3359,614.0313 Q1963.6563,612.375 1966.1563,612.375 Q1966.8594,612.375 1967.5078,612.5313 Q1968.1563,612.6875 1968.7188,612.9844 L1968.7188,615.7031 Q1968.0938,615.125 1967.5,614.8516 Q1966.9063,614.5781 1966.2813,614.5781 Q1964.9375,614.5781 1964.25,615.6484 Q1963.5625,616.7188 1963.5625,618.8125 Q1963.5625,620.9063 1964.25,621.9766 Q1964.9375,623.0469 1966.2813,623.0469 Q1966.9063,623.0469 1967.5,622.7734 Q1968.0938,622.5 1968.7188,621.9219 L1968.7188,624.6406 Z "/><text fill="#000000" font-family="sans-serif" font-size="12" lengthAdjust="spacingAndGlyphs" textLength="50" x="1986.25" y="623.1543">Triangle</text><line style="stroke: #A80036; stroke-width: 1.5;" x1="1830.5" x2="2159.5" y1="635" y2="635"/><text fill="#000000" font-family="sans-serif" font-size="11" lengthAdjust="spacingAndGlyphs" textLength="72" x="1835.5" y="649.2104">-v0:Vertex2D</text><text fill="#000000" font-family="sans-serif" font-size="11" lengthAdjust="spacingAndGlyphs" textLength="72" x="1835.5" y="662.0151">-v1:Vertex2D</text><text fill="#000000" font-family="sans-serif" font-size="11" lengthAdjust="spacingAndGlyphs" textLength="72" x="1835.5" y="674.8198">-v2:Vertex2D</text><text fill="#000000" font-family="sans-serif" font-size="11" lengthAdjust="spacingAndGlyphs" textLength="76" x="1835.5" y="687.6245">-width:double</text><text fill="#000000" font-family="sans-serif" font-size="11" lengthAdjust="spacingAndGlyphs" textLength="81" x="1835.5" y="700.4292">-height:double</text><line style="stroke: #A80036; stroke-width: 1.0;" x1="1830.5" x2="2159.5" y1="707.0234" y2="707.0234"/><text fill="#000000" font-family="sans-serif" font-size="11" lengthAdjust="spacingAndGlyphs" textLength="319" x="1835.5" y="721.2339">+Triangle(center:Vertex2D, width:double, height:double)</text><text fill="#000000" font-family="sans-serif" font-size="11" lengthAdjust="spacingAndGlyphs" textLength="283" x="1835.5" y="734.0386">+Triangle(v0:Vertex2D, v1:Vertex2D, v2:Vertex2D)</text><line style="stroke: #A80036; stroke-width: 1.0; stroke-dasharray: 1.0,2.0;" x1="1830.5" x2="2159.5" y1="740.6328" y2="740.6328"/><text fill="#000000" font-family="sans-serif" font-size="11" lengthAdjust="spacingAndGlyphs" textLength="175" x="1835.5" y="754.8433">-calculateVerticesFromCenter()</text><text fill="#000000" font-family="sans-serif" font-size="11" lengthAdjust="spacingAndGlyphs" textLength="117" x="1835.5" y="767.6479">-updateCenterPoint()</text><text fill="#000000" font-family="sans-serif" font-size="11" lengthAdjust="spacingAndGlyphs" textLength="124" x="1835.5" y="780.4526">+rotate(angle:double)</text><text fill="#000000" font-family="sans-serif" font-size="11" lengthAdjust="spacingAndGlyphs" textLength="221" x="1835.5" y="793.2573">+scale(xFactor:double, yFactor:double)</text><text fill="#000000" font-family="sans-serif" font-size="11" lengthAdjust="spacingAndGlyphs" textLength="100" x="1835.5" y="806.062">+toString():String</text><rect fill="#FEFECE" filter="url(#f1)" height="248.0703" style="stroke: #A80036; stroke-width: 1.5;" width="380" x="876" y="584"/><ellipse cx="1030.25" cy="600" fill="#ADD1B2" rx="11" ry="11" style="stroke: #A80036; stroke-width: 1.0;"/><path d="M1033.2188,605.6406 Q1032.6406,605.9375 1032,606.0859 Q1031.3594,606.2344 1030.6563,606.2344 Q1028.1563,606.2344 1026.8359,604.5859 Q1025.5156,602.9375 1025.5156,599.8125 Q1025.5156,596.6875 1026.8359,595.0313 Q1028.1563,593.375 1030.6563,593.375 Q1031.3594,593.375 1032.0078,593.5313 Q1032.6563,593.6875 1033.2188,593.9844 L1033.2188,596.7031 Q1032.5938,596.125 1032,595.8516 Q1031.4063,595.5781 1030.7813,595.5781 Q1029.4375,595.5781 1028.75,596.6484 Q1028.0625,597.7188 1028.0625,599.8125 Q1028.0625,601.9063 1028.75,602.9766 Q1029.4375,604.0469 1030.7813,604.0469 Q1031.4063,604.0469 1032,603.7734 Q1032.5938,603.5 1033.2188,602.9219 L1033.2188,605.6406 Z "/><text fill="#000000" font-family="sans-serif" font-size="12" lengthAdjust="spacingAndGlyphs" textLength="63" x="1050.75" y="604.1543">Rectangle</text><line style="stroke: #A80036; stroke-width: 1.5;" x1="877" x2="1255" y1="616" y2="616"/><text fill="#000000" font-family="sans-serif" font-size="11" lengthAdjust="spacingAndGlyphs" textLength="72" x="882" y="630.2104">-v0:Vertex2D</text><text fill="#000000" font-family="sans-serif" font-size="11" lengthAdjust="spacingAndGlyphs" textLength="72" x="882" y="643.0151">-v1:Vertex2D</text><text fill="#000000" font-family="sans-serif" font-size="11" lengthAdjust="spacingAndGlyphs" textLength="72" x="882" y="655.8198">-v3:Vertex2D</text><text fill="#000000" font-family="sans-serif" font-size="11" lengthAdjust="spacingAndGlyphs" textLength="72" x="882" y="668.6245">-v3:Vertex2D</text><text fill="#000000" font-family="sans-serif" font-size="11" lengthAdjust="spacingAndGlyphs" textLength="76" x="882" y="681.4292">-width:double</text><text fill="#000000" font-family="sans-serif" font-size="11" lengthAdjust="spacingAndGlyphs" textLength="81" x="882" y="694.2339">-height:double</text><line style="stroke: #A80036; stroke-width: 1.0;" x1="877" x2="1255" y1="700.8281" y2="700.8281"/><text fill="#000000" font-family="sans-serif" font-size="11" lengthAdjust="spacingAndGlyphs" textLength="328" x="882" y="715.0386">+Rectangle(center:Vertex2D, width:double, height:double)</text><text fill="#000000" font-family="sans-serif" font-size="11" lengthAdjust="spacingAndGlyphs" textLength="368" x="882" y="727.8433">+Rectangle(v0:Vertex2D, v1:Vertex2D, v2:Vertex2D, v3:Vertex2D)</text><line style="stroke: #A80036; stroke-width: 1.0; stroke-dasharray: 1.0,2.0;" x1="877" x2="1255" y1="734.4375" y2="734.4375"/><text fill="#000000" font-family="sans-serif" font-size="11" lengthAdjust="spacingAndGlyphs" textLength="175" x="882" y="748.6479">-calculateVerticesFromCenter()</text><text fill="#000000" font-family="sans-serif" font-size="11" lengthAdjust="spacingAndGlyphs" textLength="117" x="882" y="761.4526">-updateCenterPoint()</text><text fill="#000000" font-family="sans-serif" font-size="11" lengthAdjust="spacingAndGlyphs" textLength="92" x="882" y="774.2573">-calculateWidth()</text><text fill="#000000" font-family="sans-serif" font-size="11" lengthAdjust="spacingAndGlyphs" textLength="98" x="882" y="787.062">-calculateHeight()</text><text fill="#000000" font-family="sans-serif" font-size="11" lengthAdjust="spacingAndGlyphs" textLength="124" x="882" y="799.8667">+rotate(angle:double)</text><text fill="#000000" font-family="sans-serif" font-size="11" lengthAdjust="spacingAndGlyphs" textLength="221" x="882" y="812.6714">+scale(xFactor:double, yFactor:double)</text><text fill="#000000" font-family="sans-serif" font-size="11" lengthAdjust="spacingAndGlyphs" textLength="100" x="882" y="825.4761">+toString():String</text><rect fill="#FEFECE" filter="url(#f1)" height="196.8516" style="stroke: #A80036; stroke-width: 1.5;" width="235" x="1291.5" y="609.5"/><ellipse cx="1382.25" cy="625.5" fill="#ADD1B2" rx="11" ry="11" style="stroke: #A80036; stroke-width: 1.0;"/><path d="M1385.2188,631.1406 Q1384.6406,631.4375 1384,631.5859 Q1383.3594,631.7344 1382.6563,631.7344 Q1380.1563,631.7344 1378.8359,630.0859 Q1377.5156,628.4375 1377.5156,625.3125 Q1377.5156,622.1875 1378.8359,620.5313 Q1380.1563,618.875 1382.6563,618.875 Q1383.3594,618.875 1384.0078,619.0313 Q1384.6563,619.1875 1385.2188,619.4844 L1385.2188,622.2031 Q1384.5938,621.625 1384,621.3516 Q1383.4063,621.0781 1382.7813,621.0781 Q1381.4375,621.0781 1380.75,622.1484 Q1380.0625,623.2188 1380.0625,625.3125 Q1380.0625,627.4063 1380.75,628.4766 Q1381.4375,629.5469 1382.7813,629.5469 Q1383.4063,629.5469 1384,629.2734 Q1384.5938,629 1385.2188,628.4219 L1385.2188,631.1406 Z "/><text fill="#000000" font-family="sans-serif" font-size="12" lengthAdjust="spacingAndGlyphs" textLength="45" x="1402.75" y="629.6543">Square</text><line style="stroke: #A80036; stroke-width: 1.5;" x1="1292.5" x2="1525.5" y1="641.5" y2="641.5"/><text fill="#000000" font-family="sans-serif" font-size="11" lengthAdjust="spacingAndGlyphs" textLength="72" x="1297.5" y="655.7104">-v0:Vertex2D</text><text fill="#000000" font-family="sans-serif" font-size="11" lengthAdjust="spacingAndGlyphs" textLength="72" x="1297.5" y="668.5151">-v1:Vertex2D</text><text fill="#000000" font-family="sans-serif" font-size="11" lengthAdjust="spacingAndGlyphs" textLength="72" x="1297.5" y="681.3198">-v3:Vertex2D</text><text fill="#000000" font-family="sans-serif" font-size="11" lengthAdjust="spacingAndGlyphs" textLength="72" x="1297.5" y="694.1245">-v3:Vertex2D</text><text fill="#000000" font-family="sans-serif" font-size="11" lengthAdjust="spacingAndGlyphs" textLength="108" x="1297.5" y="706.9292">-sideLength:double</text><line style="stroke: #A80036; stroke-width: 1.0;" x1="1292.5" x2="1525.5" y1="713.5234" y2="713.5234"/><text fill="#000000" font-family="sans-serif" font-size="11" lengthAdjust="spacingAndGlyphs" textLength="223" x="1297.5" y="727.7339">+Square(center:Vertex2D, side:double)</text><line style="stroke: #A80036; stroke-width: 1.0; stroke-dasharray: 1.0,2.0;" x1="1292.5" x2="1525.5" y1="734.3281" y2="734.3281"/><text fill="#000000" font-family="sans-serif" font-size="11" lengthAdjust="spacingAndGlyphs" textLength="117" x="1297.5" y="748.5386">-updateCenterPoint()</text><text fill="#000000" font-family="sans-serif" font-size="11" lengthAdjust="spacingAndGlyphs" textLength="180" x="1297.5" y="761.3433">+moveBy(dx:double, dy:double)</text><text fill="#000000" font-family="sans-serif" font-size="11" lengthAdjust="spacingAndGlyphs" textLength="124" x="1297.5" y="774.1479">+rotate(angle:double)</text><text fill="#000000" font-family="sans-serif" font-size="11" lengthAdjust="spacingAndGlyphs" textLength="221" x="1297.5" y="786.9526">+scale(xFactor:double, yFactor:double)</text><text fill="#000000" font-family="sans-serif" font-size="11" lengthAdjust="spacingAndGlyphs" textLength="100" x="1297.5" y="799.7573">+toString():String</text><path d="M598.757,281.795 C600.091,283.257 601.504,284.66 603,286 C618.988,300.319 778.533,281.528 796,294 C822.995,313.275 836.977,347.557 844.219,377.781 " fill="none" style="stroke: #A80036; stroke-width: 1.0;"/><ellipse cx="594.6614" cy="276.0696" fill="#FFFFFF" rx="8" ry="8" style="stroke: #A80036; stroke-width: 1.0;"/><line style="stroke: #A80036; stroke-width: 1.0;" x1="599.3159" x2="590.007" y1="282.5762" y2="269.563"/><line style="stroke: #A80036; stroke-width: 1.0;" x1="588.1548" x2="601.1681" y1="280.7241" y2="271.4152"/><path d="M568.827,162.859 C488.727,170.367 116.077,209.524 46,294 C19.6542,325.759 24.0085,376.37 30.393,408.223 " fill="none" style="stroke: #A80036; stroke-width: 1.0;"/><ellipse cx="568.1386" cy="162.9897" fill="#FFFFFF" rx="8" ry="8" style="stroke: #A80036; stroke-width: 1.0;"/><line style="stroke: #A80036; stroke-width: 1.0;" x1="560.2772" x2="576" y1="164.4724" y2="161.507"/><line style="stroke: #A80036; stroke-width: 1.0;" x1="566.6559" x2="569.6213" y1="155.1283" y2="170.8511"/><path d="M1340.44,348.838 C1321.13,328.463 1298.83,308.539 1275,294 C1190.12,242.218 1084.31,210.039 994.779,190.385 " fill="none" style="stroke: #A80036; stroke-width: 1.0; stroke-dasharray: 7.0,7.0;"/><polygon fill="#A80036" points="1344.01,352.647,1340.7862,343.3407,1340.5956,348.9943,1334.942,348.8037,1344.01,352.647" style="stroke: #A80036; stroke-width: 1.0;"/><path d="M593.916,380.945 C631.603,342.132 682.288,289.935 724.77,246.185 " fill="none" style="stroke: #A80036; stroke-width: 1.0; stroke-dasharray: 7.0,7.0;"/><polygon fill="#A80036" points="590.31,384.659,599.45,380.9901,593.7937,381.0724,593.7115,375.4162,590.31,384.659" style="stroke: #A80036; stroke-width: 1.0;"/><path d="M508.172,510.59 C485.786,562.214 456.422,629.929 438.671,670.862 " fill="none" style="stroke: #A80036; stroke-width: 1.0;"/><polygon fill="none" points="501.841,507.594,516.221,492.03,514.686,513.164,501.841,507.594" style="stroke: #A80036; stroke-width: 1.0;"/><path d="M570.059,510.511 C588.763,553.275 612.306,607.102 630.02,647.601 " fill="none" style="stroke: #A80036; stroke-width: 1.0;"/><polygon fill="none" points="563.577,513.159,561.976,492.03,576.404,507.549,563.577,513.159" style="stroke: #A80036; stroke-width: 1.0;"/><path d="M464.076,504.749 C455.456,511.48 446.653,518.031 438,524 C393.121,554.959 375.667,552.735 331,584 C309.136,599.304 286.699,617.331 266.271,634.794 " fill="none" style="stroke: #A80036; stroke-width: 1.0;"/><polygon fill="none" points="459.845,499.169,479.825,492.112,468.606,510.088,459.845,499.169" style="stroke: #A80036; stroke-width: 1.0;"/><path d="M1508.6,538.543 C1540.62,570.387 1575.48,605.051 1605.2,634.611 " fill="none" style="stroke: #A80036; stroke-width: 1.0;"/><polygon fill="none" points="1503.36,543.205,1494.11,524.139,1513.23,533.278,1503.36,543.205" style="stroke: #A80036; stroke-width: 1.0;"/><path d="M1559.18,483.538 C1636.6,508.666 1731.43,543.274 1812,584 C1823.44,589.785 1835.03,596.163 1846.52,602.878 " fill="none" style="stroke: #A80036; stroke-width: 1.0;"/><polygon fill="none" points="1556.8,490.126,1539.89,477.356,1561.07,476.794,1556.8,490.126" style="stroke: #A80036; stroke-width: 1.0;"/><path d="M1284.54,536.566 C1264.85,551.918 1244.27,567.968 1223.95,583.82 " fill="none" style="stroke: #A80036; stroke-width: 1.0;"/><polygon fill="none" points="1280.4,530.918,1300.47,524.139,1289.01,541.958,1280.4,530.918" style="stroke: #A80036; stroke-width: 1.0;"/><path d="M1409,544.296 C1409,565.733 1409,588.212 1409,609.386 " fill="none" style="stroke: #A80036; stroke-width: 1.0;"/><polygon fill="none" points="1402,544.139,1409,524.139,1416,544.139,1402,544.139" style="stroke: #A80036; stroke-width: 1.0;"/></g></svg>