<?xml version="1.0" encoding="UTF-8" standalone="yes"?><svg xmlns="http://www.w3.org/2000/svg" xmlns:xlink="http://www.w3.org/1999/xlink" height="517.8px" style="width:1320px;height:517px;" version="1.1" viewBox="0 0 1320 517" width="1320.6001px"><defs><filter height="300%" id="f1" width="300%" x="-1" y="-1"><feGaussianBlur result="blurOut" stdDeviation="1.2000000476837158"/><feColorMatrix in="blurOut" result="blurOut2" type="matrix" values="0 0 0 0 0 0 0 0 0 0 0 0 0 0 0 0 0 0 .4 0"/><feOffset dx="2.4000000953674316" dy="2.4000000953674316" in="blurOut2" result="blurOut3"/><feBlend in="SourceGraphic" in2="blurOut3" mode="normal"/></filter></defs><g><polygon fill="#FFFFFF" filter="url(#f1)" points="350.4,19.2,458.4,19.2,462.6,32.5781,616.2,32.5781,616.2,162,350.4,162,350.4,19.2" style="stroke: #000000; stroke-width: 1.2000000476837158;"/><line style="stroke: #000000; stroke-width: 1.2000000476837158;" x1="350.4" x2="462.6" y1="32.5781" y2="32.5781"/><text fill="#000000" font-family="sans-serif" font-size="8.4" font-weight="bold" lengthAdjust="spacingAndGlyphs" textLength="104.4" x="352.2" y="28.7971">se.hig.oodp.lab.model</text><polygon fill="#FFFFFF" filter="url(#f1)" points="18,205.2,187.8,205.2,192,218.5781,487.8,218.5781,487.8,483,18,483,18,205.2" style="stroke: #000000; stroke-width: 1.2000000476837158;"/><line style="stroke: #000000; stroke-width: 1.2000000476837158;" x1="18" x2="192" y1="218.5781" y2="218.5781"/><text fill="#000000" font-family="sans-serif" font-size="8.4" font-weight="bold" lengthAdjust="spacingAndGlyphs" textLength="166.2" x="19.8" y="214.7971">se.hig.oodp.lab.model.simplefigure</text><polygon fill="#FFFFFF" filter="url(#f1)" points="511.8,186,651,186,655.2,199.3781,1316.4001,199.3781,1316.4001,513.6,511.8,513.6,511.8,186" style="stroke: #000000; stroke-width: 1.2000000476837158;"/><line style="stroke: #000000; stroke-width: 1.2000000476837158;" x1="511.8" x2="655.2" y1="199.3781" y2="199.3781"/><text fill="#000000" font-family="sans-serif" font-size="8.4" font-weight="bold" lengthAdjust="spacingAndGlyphs" textLength="135.6" x="513.6" y="195.5971">se.hig.oodp.lab.model.figure</text><rect fill="#FEFECE" filter="url(#f1)" height="102.7453" style="stroke: #A80036; stroke-width: 0.9000000357627869;" width="225" x="376.5" y="45"/><ellipse cx="469.35" cy="54.6" fill="#ADD1B2" rx="6.6" ry="6.6" style="stroke: #A80036; stroke-width: 0.6000000238418579;"/><path d="M471.1313,57.9844 Q470.7844,58.1625 470.4,58.2516 Q470.0156,58.3406 469.5938,58.3406 Q468.0938,58.3406 467.3016,57.3516 Q466.5094,56.3625 466.5094,54.4875 Q466.5094,52.6125 467.3016,51.6188 Q468.0938,50.625 469.5938,50.625 Q470.0156,50.625 470.4047,50.7188 Q470.7938,50.8125 471.1313,50.9906 L471.1313,52.6219 Q470.7563,52.275 470.4,52.1109 Q470.0438,51.9469 469.6688,51.9469 Q468.8625,51.9469 468.45,52.5891 Q468.0375,53.2313 468.0375,54.4875 Q468.0375,55.7438 468.45,56.3859 Q468.8625,57.0281 469.6688,57.0281 Q470.0438,57.0281 470.4,56.8641 Q470.7563,56.7 471.1313,56.3531 L471.1313,57.9844 Z "/><text fill="#000000" font-family="sans-serif" font-size="7.2" lengthAdjust="spacingAndGlyphs" textLength="34.2" x="481.65" y="57.0926">Vertex2D</text><line style="stroke: #A80036; stroke-width: 0.9000000357627869;" x1="377.1" x2="600.9" y1="64.2" y2="64.2"/><text fill="#000000" font-family="sans-serif" font-size="6.6" lengthAdjust="spacingAndGlyphs" textLength="31.2" x="380.1" y="72.7263">-x:double</text><text fill="#000000" font-family="sans-serif" font-size="6.6" lengthAdjust="spacingAndGlyphs" textLength="31.2" x="380.1" y="80.4091">-y:double</text><line style="stroke: #A80036; stroke-width: 0.6000000238418579;" x1="377.1" x2="600.9" y1="84.3656" y2="84.3656"/><text fill="#000000" font-family="sans-serif" font-size="6.6" lengthAdjust="spacingAndGlyphs" textLength="103.2" x="380.1" y="92.8919">+Vertex2D(x:double, y:double)</text><line style="stroke: #A80036; stroke-width: 0.6000000238418579; stroke-dasharray: 1.0,2.0;" x1="377.1" x2="600.9" y1="96.8484" y2="96.8484"/><text fill="#000000" font-family="sans-serif" font-size="6.6" lengthAdjust="spacingAndGlyphs" textLength="50.4" x="380.1" y="105.3747">+getX():double</text><text fill="#000000" font-family="sans-serif" font-size="6.6" lengthAdjust="spacingAndGlyphs" textLength="50.4" x="380.1" y="113.0575">+getY():double</text><text fill="#000000" font-family="sans-serif" font-size="6.6" lengthAdjust="spacingAndGlyphs" textLength="141" x="380.1" y="120.7403">+moveBy(dx:double, dy:double):Vertex2D</text><text fill="#000000" font-family="sans-serif" font-size="6.6" lengthAdjust="spacingAndGlyphs" textLength="154.8" x="380.1" y="128.4231">+rotate(ref:Vertex2D, angle:double):Vertex2D</text><text fill="#000000" font-family="sans-serif" font-size="6.6" lengthAdjust="spacingAndGlyphs" textLength="217.8" x="380.1" y="136.106">+scale(ref:Vertex2D, x_factor:double, y_factor:double):Vertex2D</text><text fill="#000000" font-family="sans-serif" font-size="6.6" lengthAdjust="spacingAndGlyphs" textLength="60" x="380.1" y="143.7888">+toString():String</text><rect fill="#FEFECE" filter="url(#f1)" height="64.3313" style="stroke: #A80036; stroke-width: 0.9000000357627869;" width="116.4" x="269.4" y="231"/><ellipse cx="301.05" cy="240.6" fill="#A9DCDF" rx="6.6" ry="6.6" style="stroke: #A80036; stroke-width: 0.6000000238418579;"/><path d="M301.1156,237.8063 L300.4219,240.8531 L301.8188,240.8531 L301.1156,237.8063 Z M300.225,236.4656 L302.0156,236.4656 L304.0313,243.9 L302.5594,243.9 L302.1,242.0625 L300.1313,242.0625 L299.6813,243.9 L298.2188,243.9 L300.225,236.4656 Z "/><text fill="#000000" font-family="sans-serif" font-size="7.2" font-style="italic" lengthAdjust="spacingAndGlyphs" textLength="48" x="313.35" y="243.0926">SimpleFigure</text><line style="stroke: #A80036; stroke-width: 0.9000000357627869;" x1="270" x2="385.2" y1="250.2" y2="250.2"/><text fill="#000000" font-family="sans-serif" font-size="6.6" lengthAdjust="spacingAndGlyphs" textLength="65.4" x="273" y="258.7263">#position:Vertex2D</text><line style="stroke: #A80036; stroke-width: 0.6000000238418579;" x1="270" x2="385.2" y1="262.6828" y2="262.6828"/><text fill="#000000" font-family="sans-serif" font-size="6.6" lengthAdjust="spacingAndGlyphs" textLength="109.2" x="273" y="271.2091">SimpleFigure(position:Vertex2D)</text><line style="stroke: #A80036; stroke-width: 0.6000000238418579; stroke-dasharray: 1.0,2.0;" x1="270" x2="385.2" y1="275.1656" y2="275.1656"/><text fill="#000000" font-family="sans-serif" font-size="6.6" lengthAdjust="spacingAndGlyphs" textLength="108" x="273" y="283.6919">+moveBy(dx:double. dy:double)</text><text fill="#000000" font-family="sans-serif" font-size="6.6" lengthAdjust="spacingAndGlyphs" textLength="81" x="273" y="291.3747">+getPosition():Vertex2D</text><rect fill="#FEFECE" filter="url(#f1)" height="56.6484" style="stroke: #A80036; stroke-width: 0.9000000357627869;" width="94.2" x="209.7" y="396.6"/><ellipse cx="244.65" cy="406.2" fill="#ADD1B2" rx="6.6" ry="6.6" style="stroke: #A80036; stroke-width: 0.6000000238418579;"/><path d="M246.4313,409.5844 Q246.0844,409.7625 245.7,409.8516 Q245.3156,409.9406 244.8938,409.9406 Q243.3938,409.9406 242.6016,408.9516 Q241.8094,407.9625 241.8094,406.0875 Q241.8094,404.2125 242.6016,403.2188 Q243.3938,402.225 244.8938,402.225 Q245.3156,402.225 245.7047,402.3188 Q246.0938,402.4125 246.4313,402.5906 L246.4313,404.2219 Q246.0563,403.875 245.7,403.711 Q245.3438,403.5469 244.9688,403.5469 Q244.1625,403.5469 243.75,404.1891 Q243.3375,404.8313 243.3375,406.0875 Q243.3375,407.3438 243.75,407.986 Q244.1625,408.6281 244.9688,408.6281 Q245.3438,408.6281 245.7,408.4641 Q246.0563,408.3 246.4313,407.9531 L246.4313,409.5844 Z "/><text fill="#000000" font-family="sans-serif" font-size="7.2" lengthAdjust="spacingAndGlyphs" textLength="19.2" x="256.95" y="408.6926">Point</text><line style="stroke: #A80036; stroke-width: 0.9000000357627869;" x1="210.3" x2="303.3" y1="415.8" y2="415.8"/><text fill="#000000" font-family="sans-serif" font-size="6.6" lengthAdjust="spacingAndGlyphs" textLength="87" x="213.3" y="424.3263">+Point(position:Vertex2D)</text><line style="stroke: #A80036; stroke-width: 0.6000000238418579;" x1="210.3" x2="303.3" y1="428.2828" y2="428.2828"/><text fill="#000000" font-family="sans-serif" font-size="6.6" lengthAdjust="spacingAndGlyphs" textLength="81.6" x="213.3" y="436.8091">Point(position:Vertex2D)</text><line style="stroke: #A80036; stroke-width: 0.6000000238418579; stroke-dasharray: 1.0,2.0;" x1="210.3" x2="303.3" y1="440.7656" y2="440.7656"/><text fill="#000000" font-family="sans-serif" font-size="6.6" lengthAdjust="spacingAndGlyphs" textLength="60" x="213.3" y="449.2919">+toString():String</text><rect fill="#FEFECE" filter="url(#f1)" height="72.0141" style="stroke: #A80036; stroke-width: 0.9000000357627869;" width="148.2" x="324.9" y="388.8"/><ellipse cx="386.25" cy="398.4" fill="#ADD1B2" rx="6.6" ry="6.6" style="stroke: #A80036; stroke-width: 0.6000000238418579;"/><path d="M388.0313,401.7844 Q387.6844,401.9625 387.3,402.0516 Q386.9156,402.1406 386.4938,402.1406 Q384.9938,402.1406 384.2016,401.1516 Q383.4094,400.1625 383.4094,398.2875 Q383.4094,396.4125 384.2016,395.4188 Q384.9938,394.425 386.4938,394.425 Q386.9156,394.425 387.3047,394.5188 Q387.6938,394.6125 388.0313,394.7906 L388.0313,396.4219 Q387.6563,396.075 387.3,395.911 Q386.9438,395.7469 386.5688,395.7469 Q385.7625,395.7469 385.35,396.3891 Q384.9375,397.0313 384.9375,398.2875 Q384.9375,399.5438 385.35,400.186 Q385.7625,400.8281 386.5688,400.8281 Q386.9438,400.8281 387.3,400.6641 Q387.6563,400.5 388.0313,400.1531 L388.0313,401.7844 Z "/><text fill="#000000" font-family="sans-serif" font-size="7.2" lengthAdjust="spacingAndGlyphs" textLength="20.4" x="398.55" y="400.8926">Circle</text><line style="stroke: #A80036; stroke-width: 0.9000000357627869;" x1="325.5" x2="472.5" y1="408" y2="408"/><text fill="#000000" font-family="sans-serif" font-size="6.6" lengthAdjust="spacingAndGlyphs" textLength="49.2" x="328.5" y="416.5263">-radius:double</text><line style="stroke: #A80036; stroke-width: 0.6000000238418579;" x1="325.5" x2="472.5" y1="420.4828" y2="420.4828"/><text fill="#000000" font-family="sans-serif" font-size="6.6" lengthAdjust="spacingAndGlyphs" textLength="141" x="328.5" y="429.0091">+Circle(position:Vertex2D, radius:double)</text><line style="stroke: #A80036; stroke-width: 0.6000000238418579; stroke-dasharray: 1.0,2.0;" x1="325.5" x2="472.5" y1="432.9656" y2="432.9656"/><text fill="#000000" font-family="sans-serif" font-size="6.6" lengthAdjust="spacingAndGlyphs" textLength="73.2" x="328.5" y="441.4919">+scale(factor:double)</text><text fill="#000000" font-family="sans-serif" font-size="6.6" lengthAdjust="spacingAndGlyphs" textLength="69" x="328.5" y="449.1747">+getRadius():double</text><text fill="#000000" font-family="sans-serif" font-size="6.6" lengthAdjust="spacingAndGlyphs" textLength="60" x="328.5" y="456.8575">+toString():String</text><rect fill="#FEFECE" filter="url(#f1)" height="87.3797" style="stroke: #A80036; stroke-width: 0.9000000357627869;" width="151.2" x="37.2" y="381"/><ellipse cx="98.25" cy="390.6" fill="#ADD1B2" rx="6.6" ry="6.6" style="stroke: #A80036; stroke-width: 0.6000000238418579;"/><path d="M100.0313,393.9844 Q99.6844,394.1625 99.3,394.2516 Q98.9156,394.3406 98.4938,394.3406 Q96.9938,394.3406 96.2016,393.3516 Q95.4094,392.3625 95.4094,390.4875 Q95.4094,388.6125 96.2016,387.6188 Q96.9938,386.625 98.4938,386.625 Q98.9156,386.625 99.3047,386.7188 Q99.6938,386.8125 100.0313,386.9906 L100.0313,388.6219 Q99.6563,388.275 99.3,388.111 Q98.9438,387.9469 98.5688,387.9469 Q97.7625,387.9469 97.35,388.5891 Q96.9375,389.2313 96.9375,390.4875 Q96.9375,391.7438 97.35,392.386 Q97.7625,393.0281 98.5688,393.0281 Q98.9438,393.0281 99.3,392.8641 Q99.6563,392.7 100.0313,392.3531 L100.0313,393.9844 Z "/><text fill="#000000" font-family="sans-serif" font-size="7.2" lengthAdjust="spacingAndGlyphs" textLength="24" x="110.55" y="393.0926">Ellipse</text><line style="stroke: #A80036; stroke-width: 0.9000000357627869;" x1="37.8" x2="187.8" y1="400.2" y2="400.2"/><text fill="#000000" font-family="sans-serif" font-size="6.6" lengthAdjust="spacingAndGlyphs" textLength="45.6" x="40.8" y="408.7263">-width:double</text><text fill="#000000" font-family="sans-serif" font-size="6.6" lengthAdjust="spacingAndGlyphs" textLength="48.6" x="40.8" y="416.4091">-height:double</text><line style="stroke: #A80036; stroke-width: 0.6000000238418579;" x1="37.8" x2="187.8" y1="420.3656" y2="420.3656"/><text fill="#000000" font-family="sans-serif" font-size="6.6" lengthAdjust="spacingAndGlyphs" textLength="144" x="40.8" y="428.8919">+Ellipse(position:Vertex2D, radius:double)</text><line style="stroke: #A80036; stroke-width: 0.6000000238418579; stroke-dasharray: 1.0,2.0;" x1="37.8" x2="187.8" y1="432.8485" y2="432.8485"/><text fill="#000000" font-family="sans-serif" font-size="6.6" lengthAdjust="spacingAndGlyphs" textLength="132.6" x="40.8" y="441.3747">+scale(xFactor:double, yFactor:double)</text><text fill="#000000" font-family="sans-serif" font-size="6.6" lengthAdjust="spacingAndGlyphs" textLength="64.2" x="40.8" y="449.0575">+getWidth():double</text><text fill="#000000" font-family="sans-serif" font-size="6.6" lengthAdjust="spacingAndGlyphs" textLength="67.8" x="40.8" y="456.7404">+getHeight():double</text><text fill="#000000" font-family="sans-serif" font-size="6.6" lengthAdjust="spacingAndGlyphs" textLength="60" x="40.8" y="464.4232">+toString():String</text><rect fill="#FEFECE" filter="url(#f1)" height="102.7453" style="stroke: #A80036; stroke-width: 0.9000000357627869;" width="156.6" x="772.5" y="211.8"/><ellipse cx="836.55" cy="221.4" fill="#A9DCDF" rx="6.6" ry="6.6" style="stroke: #A80036; stroke-width: 0.6000000238418579;"/><path d="M836.6157,218.6063 L835.9219,221.6531 L837.3188,221.6531 L836.6157,218.6063 Z M835.725,217.2656 L837.5157,217.2656 L839.5313,224.7 L838.0594,224.7 L837.6,222.8625 L835.6313,222.8625 L835.1813,224.7 L833.7188,224.7 L835.725,217.2656 Z "/><text fill="#000000" font-family="sans-serif" font-size="7.2" font-style="italic" lengthAdjust="spacingAndGlyphs" textLength="23.4" x="848.85" y="223.8926">Figure</text><line style="stroke: #A80036; stroke-width: 0.9000000357627869;" x1="773.1" x2="928.5" y1="231" y2="231"/><text fill="#000000" font-family="sans-serif" font-size="6.6" lengthAdjust="spacingAndGlyphs" textLength="96" x="776.1" y="239.5263">+DEFAULT_X_COORD:double</text><text fill="#000000" font-family="sans-serif" font-size="6.6" lengthAdjust="spacingAndGlyphs" textLength="96" x="776.1" y="247.2091">+DEFAULT_Y_COORD:double</text><text fill="#000000" font-family="sans-serif" font-size="6.6" lengthAdjust="spacingAndGlyphs" textLength="60" x="776.1" y="254.8919">#center:Vertex2D</text><text fill="#000000" font-family="sans-serif" font-size="6.6" lengthAdjust="spacingAndGlyphs" textLength="106.2" x="776.1" y="262.5747">#vertices:ArrayList&lt;Vertex2D&gt;</text><line style="stroke: #A80036; stroke-width: 0.6000000238418579;" x1="773.1" x2="928.5" y1="266.5313" y2="266.5313"/><text fill="#000000" font-family="sans-serif" font-size="6.6" lengthAdjust="spacingAndGlyphs" textLength="85.8" x="776.1" y="275.0575">+Figure(center:Vertex2D)</text><line style="stroke: #A80036; stroke-width: 0.6000000238418579; stroke-dasharray: 1.0,2.0;" x1="773.1" x2="928.5" y1="279.0141" y2="279.0141"/><text fill="#000000" font-family="sans-serif" font-size="6.6" lengthAdjust="spacingAndGlyphs" textLength="149.4" x="776.1" y="287.5403">-addVerticesToList(newVertices:Vertex2D...)</text><text fill="#000000" font-family="sans-serif" font-size="6.6" lengthAdjust="spacingAndGlyphs" textLength="108" x="776.1" y="295.2232">+moveBy(dx:double, dy:double)</text><text fill="#000000" font-family="sans-serif" font-size="6.6" lengthAdjust="spacingAndGlyphs" textLength="76.8" x="776.1" y="302.906">+getCenter():Vertex2D</text><text fill="#000000" font-family="sans-serif" font-size="6.6" lengthAdjust="spacingAndGlyphs" textLength="90.6" x="776.1" y="310.5888">+getVertex(n:int):Vertex2D</text><rect fill="#FEFECE" filter="url(#f1)" height="87.3797" style="stroke: #A80036; stroke-width: 0.9000000357627869;" width="139.8" x="942.3" y="381"/><ellipse cx="1002.15" cy="390.6" fill="#ADD1B2" rx="6.6" ry="6.6" style="stroke: #A80036; stroke-width: 0.6000000238418579;"/><path d="M1003.9313,393.9844 Q1003.5844,394.1625 1003.2,394.2516 Q1002.8157,394.3406 1002.3938,394.3406 Q1000.8938,394.3406 1000.1016,393.3516 Q999.3094,392.3625 999.3094,390.4875 Q999.3094,388.6125 1000.1016,387.6188 Q1000.8938,386.625 1002.3938,386.625 Q1002.8157,386.625 1003.2047,386.7188 Q1003.5938,386.8125 1003.9313,386.9906 L1003.9313,388.6219 Q1003.5563,388.275 1003.2,388.111 Q1002.8438,387.9469 1002.4688,387.9469 Q1001.6625,387.9469 1001.25,388.5891 Q1000.8375,389.2313 1000.8375,390.4875 Q1000.8375,391.7438 1001.25,392.386 Q1001.6625,393.0281 1002.4688,393.0281 Q1002.8438,393.0281 1003.2,392.8641 Q1003.5563,392.7 1003.9313,392.3531 L1003.9313,393.9844 Z "/><text fill="#000000" font-family="sans-serif" font-size="7.2" lengthAdjust="spacingAndGlyphs" textLength="15" x="1014.45" y="393.0926">Line</text><line style="stroke: #A80036; stroke-width: 0.9000000357627869;" x1="942.9" x2="1081.5" y1="400.2" y2="400.2"/><text fill="#000000" font-family="sans-serif" font-size="6.6" lengthAdjust="spacingAndGlyphs" textLength="43.2" x="945.9" y="408.7263">-v0:Vertex2D</text><text fill="#000000" font-family="sans-serif" font-size="6.6" lengthAdjust="spacingAndGlyphs" textLength="43.2" x="945.9" y="416.4091">-v1:Vertex2D</text><line style="stroke: #A80036; stroke-width: 0.6000000238418579;" x1="942.9" x2="1081.5" y1="420.3656" y2="420.3656"/><text fill="#000000" font-family="sans-serif" font-size="6.6" lengthAdjust="spacingAndGlyphs" textLength="110.4" x="945.9" y="428.8919">+Line(v0:Vertex2D, v1:Vertex2D)</text><line style="stroke: #A80036; stroke-width: 0.6000000238418579; stroke-dasharray: 1.0,2.0;" x1="942.9" x2="1081.5" y1="432.8485" y2="432.8485"/><text fill="#000000" font-family="sans-serif" font-size="6.6" lengthAdjust="spacingAndGlyphs" textLength="70.2" x="945.9" y="441.3747">-updateCenterPoint()</text><text fill="#000000" font-family="sans-serif" font-size="6.6" lengthAdjust="spacingAndGlyphs" textLength="74.4" x="945.9" y="449.0575">+rotate(angle:double)</text><text fill="#000000" font-family="sans-serif" font-size="6.6" lengthAdjust="spacingAndGlyphs" textLength="132.6" x="945.9" y="456.7404">+scale(xFactor:double, yFactor:double)</text><text fill="#000000" font-family="sans-serif" font-size="6.6" lengthAdjust="spacingAndGlyphs" textLength="60" x="945.9" y="464.4232">+toString():String</text><rect fill="#FEFECE" filter="url(#f1)" height="125.7938" style="stroke: #A80036; stroke-width: 0.9000000357627869;" width="198.6" x="1103.1" y="361.8"/><ellipse cx="1184.85" cy="371.4" fill="#ADD1B2" rx="6.6" ry="6.6" style="stroke: #A80036; stroke-width: 0.6000000238418579;"/><path d="M1186.6313,374.7844 Q1186.2844,374.9625 1185.9,375.0516 Q1185.5157,375.1406 1185.0938,375.1406 Q1183.5938,375.1406 1182.8016,374.1516 Q1182.0094,373.1625 1182.0094,371.2875 Q1182.0094,369.4125 1182.8016,368.4188 Q1183.5938,367.425 1185.0938,367.425 Q1185.5157,367.425 1185.9047,367.5188 Q1186.2938,367.6125 1186.6313,367.7906 L1186.6313,369.4219 Q1186.2563,369.075 1185.9,368.911 Q1185.5438,368.7469 1185.1688,368.7469 Q1184.3625,368.7469 1183.95,369.3891 Q1183.5375,370.0313 1183.5375,371.2875 Q1183.5375,372.5438 1183.95,373.186 Q1184.3625,373.8281 1185.1688,373.8281 Q1185.5438,373.8281 1185.9,373.6641 Q1186.2563,373.5 1186.6313,373.1531 L1186.6313,374.7844 Z "/><text fill="#000000" font-family="sans-serif" font-size="7.2" lengthAdjust="spacingAndGlyphs" textLength="30" x="1197.15" y="373.8926">Triangle</text><line style="stroke: #A80036; stroke-width: 0.9000000357627869;" x1="1103.7" x2="1301.1001" y1="381" y2="381"/><text fill="#000000" font-family="sans-serif" font-size="6.6" lengthAdjust="spacingAndGlyphs" textLength="43.2" x="1106.7" y="389.5263">-v0:Vertex2D</text><text fill="#000000" font-family="sans-serif" font-size="6.6" lengthAdjust="spacingAndGlyphs" textLength="43.2" x="1106.7" y="397.2091">-v1:Vertex2D</text><text fill="#000000" font-family="sans-serif" font-size="6.6" lengthAdjust="spacingAndGlyphs" textLength="43.2" x="1106.7" y="404.8919">-v2:Vertex2D</text><text fill="#000000" font-family="sans-serif" font-size="6.6" lengthAdjust="spacingAndGlyphs" textLength="45.6" x="1106.7" y="412.5747">-width:double</text><text fill="#000000" font-family="sans-serif" font-size="6.6" lengthAdjust="spacingAndGlyphs" textLength="48.6" x="1106.7" y="420.2575">-height:double</text><line style="stroke: #A80036; stroke-width: 0.6000000238418579;" x1="1103.7" x2="1301.1001" y1="424.2141" y2="424.2141"/><text fill="#000000" font-family="sans-serif" font-size="6.6" lengthAdjust="spacingAndGlyphs" textLength="191.4" x="1106.7" y="432.7403">+Triangle(center:Vertex2D, width:double, height:double)</text><text fill="#000000" font-family="sans-serif" font-size="6.6" lengthAdjust="spacingAndGlyphs" textLength="169.8" x="1106.7" y="440.4232">+Triangle(v0:Vertex2D, v1:Vertex2D, v2:Vertex2D)</text><line style="stroke: #A80036; stroke-width: 0.6000000238418579; stroke-dasharray: 1.0,2.0;" x1="1103.7" x2="1301.1001" y1="444.3797" y2="444.3797"/><text fill="#000000" font-family="sans-serif" font-size="6.6" lengthAdjust="spacingAndGlyphs" textLength="105" x="1106.7" y="452.906">-calculateVerticesFromCenter()</text><text fill="#000000" font-family="sans-serif" font-size="6.6" lengthAdjust="spacingAndGlyphs" textLength="70.2" x="1106.7" y="460.5888">-updateCenterPoint()</text><text fill="#000000" font-family="sans-serif" font-size="6.6" lengthAdjust="spacingAndGlyphs" textLength="74.4" x="1106.7" y="468.2716">+rotate(angle:double)</text><text fill="#000000" font-family="sans-serif" font-size="6.6" lengthAdjust="spacingAndGlyphs" textLength="132.6" x="1106.7" y="475.9544">+scale(xFactor:double, yFactor:double)</text><text fill="#000000" font-family="sans-serif" font-size="6.6" lengthAdjust="spacingAndGlyphs" textLength="60" x="1106.7" y="483.6372">+toString():String</text><rect fill="#FEFECE" filter="url(#f1)" height="148.8422" style="stroke: #A80036; stroke-width: 0.9000000357627869;" width="228" x="531" y="350.4"/><ellipse cx="623.55" cy="360" fill="#ADD1B2" rx="6.6" ry="6.6" style="stroke: #A80036; stroke-width: 0.6000000238418579;"/><path d="M625.3313,363.3844 Q624.9844,363.5625 624.6,363.6516 Q624.2156,363.7406 623.7938,363.7406 Q622.2938,363.7406 621.5016,362.7516 Q620.7094,361.7625 620.7094,359.8875 Q620.7094,358.0125 621.5016,357.0188 Q622.2938,356.025 623.7938,356.025 Q624.2156,356.025 624.6047,356.1188 Q624.9938,356.2125 625.3313,356.3906 L625.3313,358.0219 Q624.9563,357.675 624.6,357.511 Q624.2438,357.3469 623.8688,357.3469 Q623.0625,357.3469 622.65,357.9891 Q622.2375,358.6313 622.2375,359.8875 Q622.2375,361.1438 622.65,361.786 Q623.0625,362.4281 623.8688,362.4281 Q624.2438,362.4281 624.6,362.2641 Q624.9563,362.1 625.3313,361.7531 L625.3313,363.3844 Z "/><text fill="#000000" font-family="sans-serif" font-size="7.2" lengthAdjust="spacingAndGlyphs" textLength="37.8" x="635.85" y="362.4926">Rectangle</text><line style="stroke: #A80036; stroke-width: 0.9000000357627869;" x1="531.6" x2="758.4" y1="369.6" y2="369.6"/><text fill="#000000" font-family="sans-serif" font-size="6.6" lengthAdjust="spacingAndGlyphs" textLength="43.2" x="534.6" y="378.1263">-v0:Vertex2D</text><text fill="#000000" font-family="sans-serif" font-size="6.6" lengthAdjust="spacingAndGlyphs" textLength="43.2" x="534.6" y="385.8091">-v1:Vertex2D</text><text fill="#000000" font-family="sans-serif" font-size="6.6" lengthAdjust="spacingAndGlyphs" textLength="43.2" x="534.6" y="393.4919">-v3:Vertex2D</text><text fill="#000000" font-family="sans-serif" font-size="6.6" lengthAdjust="spacingAndGlyphs" textLength="43.2" x="534.6" y="401.1747">-v3:Vertex2D</text><text fill="#000000" font-family="sans-serif" font-size="6.6" lengthAdjust="spacingAndGlyphs" textLength="45.6" x="534.6" y="408.8575">-width:double</text><text fill="#000000" font-family="sans-serif" font-size="6.6" lengthAdjust="spacingAndGlyphs" textLength="48.6" x="534.6" y="416.5403">-height:double</text><line style="stroke: #A80036; stroke-width: 0.6000000238418579;" x1="531.6" x2="758.4" y1="420.4969" y2="420.4969"/><text fill="#000000" font-family="sans-serif" font-size="6.6" lengthAdjust="spacingAndGlyphs" textLength="196.8" x="534.6" y="429.0232">+Rectangle(center:Vertex2D, width:double, height:double)</text><text fill="#000000" font-family="sans-serif" font-size="6.6" lengthAdjust="spacingAndGlyphs" textLength="220.8" x="534.6" y="436.706">+Rectangle(v0:Vertex2D, v1:Vertex2D, v2:Vertex2D, v3:Vertex2D)</text><line style="stroke: #A80036; stroke-width: 0.6000000238418579; stroke-dasharray: 1.0,2.0;" x1="531.6" x2="758.4" y1="440.6625" y2="440.6625"/><text fill="#000000" font-family="sans-serif" font-size="6.6" lengthAdjust="spacingAndGlyphs" textLength="105" x="534.6" y="449.1888">-calculateVerticesFromCenter()</text><text fill="#000000" font-family="sans-serif" font-size="6.6" lengthAdjust="spacingAndGlyphs" textLength="70.2" x="534.6" y="456.8716">-updateCenterPoint()</text><text fill="#000000" font-family="sans-serif" font-size="6.6" lengthAdjust="spacingAndGlyphs" textLength="55.2" x="534.6" y="464.5544">-calculateWidth()</text><text fill="#000000" font-family="sans-serif" font-size="6.6" lengthAdjust="spacingAndGlyphs" textLength="58.8" x="534.6" y="472.2372">-calculateHeight()</text><text fill="#000000" font-family="sans-serif" font-size="6.6" lengthAdjust="spacingAndGlyphs" textLength="74.4" x="534.6" y="479.92">+rotate(angle:double)</text><text fill="#000000" font-family="sans-serif" font-size="6.6" lengthAdjust="spacingAndGlyphs" textLength="132.6" x="534.6" y="487.6029">+scale(xFactor:double, yFactor:double)</text><text fill="#000000" font-family="sans-serif" font-size="6.6" lengthAdjust="spacingAndGlyphs" textLength="60" x="534.6" y="495.2857">+toString():String</text><rect fill="#FEFECE" filter="url(#f1)" height="118.1109" style="stroke: #A80036; stroke-width: 0.9000000357627869;" width="141" x="780.3" y="365.7"/><ellipse cx="834.75" cy="375.3" fill="#ADD1B2" rx="6.6" ry="6.6" style="stroke: #A80036; stroke-width: 0.6000000238418579;"/><path d="M836.5313,378.6844 Q836.1844,378.8625 835.8,378.9516 Q835.4157,379.0406 834.9938,379.0406 Q833.4938,379.0406 832.7016,378.0516 Q831.9094,377.0625 831.9094,375.1875 Q831.9094,373.3125 832.7016,372.3188 Q833.4938,371.325 834.9938,371.325 Q835.4157,371.325 835.8047,371.4188 Q836.1938,371.5125 836.5313,371.6906 L836.5313,373.3219 Q836.1563,372.975 835.8,372.811 Q835.4438,372.6469 835.0688,372.6469 Q834.2625,372.6469 833.85,373.2891 Q833.4375,373.9313 833.4375,375.1875 Q833.4375,376.4438 833.85,377.086 Q834.2625,377.7281 835.0688,377.7281 Q835.4438,377.7281 835.8,377.5641 Q836.1563,377.4 836.5313,377.0531 L836.5313,378.6844 Z "/><text fill="#000000" font-family="sans-serif" font-size="7.2" lengthAdjust="spacingAndGlyphs" textLength="27" x="847.05" y="377.7926">Square</text><line style="stroke: #A80036; stroke-width: 0.9000000357627869;" x1="780.9" x2="920.7" y1="384.9" y2="384.9"/><text fill="#000000" font-family="sans-serif" font-size="6.6" lengthAdjust="spacingAndGlyphs" textLength="43.2" x="783.9" y="393.4263">-v0:Vertex2D</text><text fill="#000000" font-family="sans-serif" font-size="6.6" lengthAdjust="spacingAndGlyphs" textLength="43.2" x="783.9" y="401.1091">-v1:Vertex2D</text><text fill="#000000" font-family="sans-serif" font-size="6.6" lengthAdjust="spacingAndGlyphs" textLength="43.2" x="783.9" y="408.7919">-v3:Vertex2D</text><text fill="#000000" font-family="sans-serif" font-size="6.6" lengthAdjust="spacingAndGlyphs" textLength="43.2" x="783.9" y="416.4747">-v3:Vertex2D</text><text fill="#000000" font-family="sans-serif" font-size="6.6" lengthAdjust="spacingAndGlyphs" textLength="64.8" x="783.9" y="424.1575">-sideLength:double</text><line style="stroke: #A80036; stroke-width: 0.6000000238418579;" x1="780.9" x2="920.7" y1="428.1141" y2="428.1141"/><text fill="#000000" font-family="sans-serif" font-size="6.6" lengthAdjust="spacingAndGlyphs" textLength="133.8" x="783.9" y="436.6403">+Square(center:Vertex2D, side:double)</text><line style="stroke: #A80036; stroke-width: 0.6000000238418579; stroke-dasharray: 1.0,2.0;" x1="780.9" x2="920.7" y1="440.5969" y2="440.5969"/><text fill="#000000" font-family="sans-serif" font-size="6.6" lengthAdjust="spacingAndGlyphs" textLength="70.2" x="783.9" y="449.1232">-updateCenterPoint()</text><text fill="#000000" font-family="sans-serif" font-size="6.6" lengthAdjust="spacingAndGlyphs" textLength="108" x="783.9" y="456.806">+moveBy(dx:double, dy:double)</text><text fill="#000000" font-family="sans-serif" font-size="6.6" lengthAdjust="spacingAndGlyphs" textLength="74.4" x="783.9" y="464.4888">+rotate(angle:double)</text><text fill="#000000" font-family="sans-serif" font-size="6.6" lengthAdjust="spacingAndGlyphs" textLength="132.6" x="783.9" y="472.1716">+scale(xFactor:double, yFactor:double)</text><text fill="#000000" font-family="sans-serif" font-size="6.6" lengthAdjust="spacingAndGlyphs" textLength="60" x="783.9" y="479.8544">+toString():String</text><path d="M364.0542,169.077 C364.8546,169.9542 365.7024,170.796 366.6,171.6 C376.2432,180.2352 472.4646,168.879 483,176.4 C499.1982,187.9632 507.5874,208.5324 511.9326,226.6668 " fill="none" style="stroke: #A80036; stroke-width: 0.6000000238418579;"/><ellipse cx="361.5963" cy="165.6424" fill="#FFFFFF" rx="4.8" ry="4.8" style="stroke: #A80036; stroke-width: 0.6000000238418579;"/><line style="stroke: #A80036; stroke-width: 0.6000000238418579;" x1="364.3889" x2="358.8036" y1="169.5464" y2="161.7384"/><line style="stroke: #A80036; stroke-width: 0.6000000238418579;" x1="357.6923" x2="365.5003" y1="168.435" y2="162.8497"/><path d="M346.1214,97.6788 C297.6912,102.0318 70.3698,125.0208 27.6,176.4 C11.7601,195.4284 14.3821,225.8028 18.2236,244.9236 " fill="none" style="stroke: #A80036; stroke-width: 0.6000000238418579;"/><ellipse cx="345.6768" cy="97.7591" fill="#FFFFFF" rx="4.8" ry="4.8" style="stroke: #A80036; stroke-width: 0.6000000238418579;"/><line style="stroke: #A80036; stroke-width: 0.6000000238418579;" x1="340.9535" x2="350.4" y1="98.6139" y2="96.9042"/><line style="stroke: #A80036; stroke-width: 0.6000000238418579;" x1="344.8219" x2="346.5316" y1="93.0358" y2="102.4823"/><path d="M809.664,209.2974 C798.084,197.0724 784.704,185.1192 770.4,176.4 C719.25,145.2174 655.47,125.8908 601.5654,114.1152 " fill="none" style="stroke: #A80036; stroke-width: 0.6000000238418579; stroke-dasharray: 7.0,7.0;"/><polygon fill="#A80036" points="811.806,211.5822,809.8609,206.0022,809.7531,209.3946,806.3607,209.2869,811.806,211.5822" style="stroke: #A80036; stroke-width: 0.6000000238418579;"/><path d="M360.672,228.567 C383.3694,205.2792 413.8938,173.961 439.4778,147.711 " fill="none" style="stroke: #A80036; stroke-width: 0.6000000238418579; stroke-dasharray: 7.0,7.0;"/><polygon fill="#A80036" points="358.5006,230.7954,363.9886,228.6041,360.5948,228.6473,360.5516,225.2534,358.5006,230.7954" style="stroke: #A80036; stroke-width: 0.6000000238418579;"/><path d="M308.8044,306.309 C296.2014,334.8792 279.9684,371.6784 269.0178,396.5028 " fill="none" style="stroke: #A80036; stroke-width: 0.6000000238418579;"/><polygon fill="none" points="305.0106,304.5024,313.6968,295.218,312.696,307.8924,305.0106,304.5024" style="stroke: #A80036; stroke-width: 0.6000000238418579;"/><path d="M346.554,306.3066 C357.9684,331.965 372.336,364.2612 383.1456,388.5606 " fill="none" style="stroke: #A80036; stroke-width: 0.6000000238418579;"/><polygon fill="none" points="342.6612,307.8894,341.6214,295.218,350.3358,304.4748,342.6612,307.8894" style="stroke: #A80036; stroke-width: 0.6000000238418579;"/><path d="M282.8322,302.889 C277.6116,306.9336 272.2674,310.8546 267,314.4 C238.6956,333.45 227.4066,331.206 199.2,350.4 C185.8266,359.5008 172.1556,370.3428 159.75,380.8776 " fill="none" style="stroke: #A80036; stroke-width: 0.6000000238418579;"/><polygon fill="none" points="280.359,299.4894,292.356,295.2804,285.6024,306.0516,280.359,299.4894" style="stroke: #A80036; stroke-width: 0.6000000238418579;"/><path d="M910.56,323.1258 C929.772,342.2322 950.688,363.0306 968.52,380.7666 " fill="none" style="stroke: #A80036; stroke-width: 0.6000000238418579;"/><polygon fill="none" points="907.416,325.923,901.866,314.4834,913.338,319.9668,907.416,325.923" style="stroke: #A80036; stroke-width: 0.6000000238418579;"/><path d="M940.908,290.1228 C987.36,305.1996 1044.258,325.9644 1092.6,350.4 C1099.464,353.871 1106.418,357.6978 1113.312,361.7268 " fill="none" style="stroke: #A80036; stroke-width: 0.6000000238418579;"/><polygon fill="none" points="939.48,294.0756,929.334,286.4136,942.042,286.0764,939.48,294.0756" style="stroke: #A80036; stroke-width: 0.6000000238418579;"/><path d="M776.124,321.9396 C764.31,331.1508 751.962,340.7808 739.77,350.292 " fill="none" style="stroke: #A80036; stroke-width: 0.6000000238418579;"/><polygon fill="none" points="773.64,318.5508,785.682,314.4834,778.806,325.1748,773.64,318.5508" style="stroke: #A80036; stroke-width: 0.6000000238418579;"/><path d="M850.8,326.5776 C850.8,339.4398 850.8,352.9272 850.8,365.6316 " fill="none" style="stroke: #A80036; stroke-width: 0.6000000238418579;"/><polygon fill="none" points="846.6,326.4834,850.8,314.4834,855,326.4834,846.6,326.4834" style="stroke: #A80036; stroke-width: 0.6000000238418579;"/></g></svg>