<?xml version="1.0" encoding="UTF-8" standalone="yes"?><svg xmlns="http://www.w3.org/2000/svg" xmlns:xlink="http://www.w3.org/1999/xlink" height="863px" style="width:2222px;height:863px;" version="1.1" viewBox="0 0 2222 863" width="2222px"><defs><filter height="300%" id="f1" width="300%" x="-1" y="-1"><feGaussianBlur result="blurOut" stdDeviation="2.0"/><feColorMatrix in="blurOut" result="blurOut2" type="matrix" values="0 0 0 0 0 0 0 0 0 0 0 0 0 0 0 0 0 0 .4 0"/><feOffset dx="4.0" dy="4.0" in="blurOut2" result="blurOut3"/><feBlend in="SourceGraphic" in2="blurOut3" mode="normal"/></filter></defs><g><polygon fill="#FFFFFF" filter="url(#f1)" points="583,32,763,32,770,54.2969,1030,54.2969,1030,270,583,270,583,32" style="stroke: #000000; stroke-width: 2.0;"/><line style="stroke: #000000; stroke-width: 2.0;" x1="583" x2="770" y1="54.2969" y2="54.2969"/><text fill="#000000" font-family="sans-serif" font-size="14" font-weight="bold" lengthAdjust="spacingAndGlyphs" textLength="174" x="586" y="47.9951">se.hig.oodp.lab.model</text><polygon fill="#FFFFFF" filter="url(#f1)" points="30,342,313,342,320,364.2969,814,364.2969,814,805,30,805,30,342" style="stroke: #000000; stroke-width: 2.0;"/><line style="stroke: #000000; stroke-width: 2.0;" x1="30" x2="320" y1="364.2969" y2="364.2969"/><text fill="#000000" font-family="sans-serif" font-size="14" font-weight="bold" lengthAdjust="spacingAndGlyphs" textLength="277" x="33" y="357.9951">se.hig.oodp.lab.model.simplefigure</text><polygon fill="#FFFFFF" filter="url(#f1)" points="854,310,1086,310,1093,332.2969,2215,332.2969,2215,856,854,856,854,310" style="stroke: #000000; stroke-width: 2.0;"/><line style="stroke: #000000; stroke-width: 2.0;" x1="854" x2="1093" y1="332.2969" y2="332.2969"/><text fill="#000000" font-family="sans-serif" font-size="14" font-weight="bold" lengthAdjust="spacingAndGlyphs" textLength="226" x="857" y="325.9951">se.hig.oodp.lab.model.figure</text><rect fill="#FEFECE" filter="url(#f1)" height="171.2422" style="stroke: #A80036; stroke-width: 1.5;" width="380" x="626" y="75"/><ellipse cx="783.25" cy="91" fill="#ADD1B2" rx="11" ry="11" style="stroke: #A80036; stroke-width: 1.0;"/><path d="M786.2188,96.6406 Q785.6406,96.9375 785,97.0859 Q784.3594,97.2344 783.6563,97.2344 Q781.1563,97.2344 779.8359,95.5859 Q778.5156,93.9375 778.5156,90.8125 Q778.5156,87.6875 779.8359,86.0313 Q781.1563,84.375 783.6563,84.375 Q784.3594,84.375 785.0078,84.5313 Q785.6563,84.6875 786.2188,84.9844 L786.2188,87.7031 Q785.5938,87.125 785,86.8516 Q784.4063,86.5781 783.7813,86.5781 Q782.4375,86.5781 781.75,87.6484 Q781.0625,88.7188 781.0625,90.8125 Q781.0625,92.9063 781.75,93.9766 Q782.4375,95.0469 783.7813,95.0469 Q784.4063,95.0469 785,94.7734 Q785.5938,94.5 786.2188,93.9219 L786.2188,96.6406 Z "/><text fill="#000000" font-family="sans-serif" font-size="12" lengthAdjust="spacingAndGlyphs" textLength="57" x="803.75" y="95.1543">Vertex2D</text><line style="stroke: #A80036; stroke-width: 1.5;" x1="627" x2="1005" y1="107" y2="107"/><rect fill="none" height="6" style="stroke: #C82930; stroke-width: 1.0;" width="6" x="634" y="115.9023"/><text fill="#000000" font-family="sans-serif" font-size="11" lengthAdjust="spacingAndGlyphs" textLength="48" x="646" y="121.2104">x:double</text><rect fill="none" height="6" style="stroke: #C82930; stroke-width: 1.0;" width="6" x="634" y="128.707"/><text fill="#000000" font-family="sans-serif" font-size="11" lengthAdjust="spacingAndGlyphs" textLength="48" x="646" y="134.0151">y:double</text><line style="stroke: #A80036; stroke-width: 1.0;" x1="627" x2="1005" y1="140.6094" y2="140.6094"/><ellipse cx="637" cy="152.5117" fill="#84BE84" rx="3" ry="3" style="stroke: #038048; stroke-width: 1.0;"/><text fill="#000000" font-family="sans-serif" font-size="11" lengthAdjust="spacingAndGlyphs" textLength="163" x="646" y="154.8198">Vertex2D(x:double, y:double)</text><line style="stroke: #A80036; stroke-width: 1.0; stroke-dasharray: 1.0,2.0;" x1="627" x2="1005" y1="161.4141" y2="161.4141"/><ellipse cx="637" cy="173.3164" fill="#84BE84" rx="3" ry="3" style="stroke: #038048; stroke-width: 1.0;"/><text fill="#000000" font-family="sans-serif" font-size="11" lengthAdjust="spacingAndGlyphs" textLength="75" x="646" y="175.6245">getX():double</text><ellipse cx="637" cy="186.1211" fill="#84BE84" rx="3" ry="3" style="stroke: #038048; stroke-width: 1.0;"/><text fill="#000000" font-family="sans-serif" font-size="11" lengthAdjust="spacingAndGlyphs" textLength="75" x="646" y="188.4292">getY():double</text><ellipse cx="637" cy="198.9258" fill="#84BE84" rx="3" ry="3" style="stroke: #038048; stroke-width: 1.0;"/><text fill="#000000" font-family="sans-serif" font-size="11" lengthAdjust="spacingAndGlyphs" textLength="226" x="646" y="201.2339">moveBy(dx:double, dy:double):Vertex2D</text><ellipse cx="637" cy="211.7305" fill="#84BE84" rx="3" ry="3" style="stroke: #038048; stroke-width: 1.0;"/><text fill="#000000" font-family="sans-serif" font-size="11" lengthAdjust="spacingAndGlyphs" textLength="249" x="646" y="214.0386">rotate(ref:Vertex2D, angle:double):Vertex2D</text><ellipse cx="637" cy="224.5352" fill="#84BE84" rx="3" ry="3" style="stroke: #038048; stroke-width: 1.0;"/><text fill="#000000" font-family="sans-serif" font-size="11" lengthAdjust="spacingAndGlyphs" textLength="354" x="646" y="226.8433">scale(ref:Vertex2D, x_factor:double, y_factor:double):Vertex2D</text><ellipse cx="637" cy="237.3398" fill="#84BE84" rx="3" ry="3" style="stroke: #038048; stroke-width: 1.0;"/><text fill="#000000" font-family="sans-serif" font-size="11" lengthAdjust="spacingAndGlyphs" textLength="91" x="646" y="239.6479">toString():String</text><rect fill="#FEFECE" filter="url(#f1)" height="107.2188" style="stroke: #A80036; stroke-width: 1.5;" width="197" x="447.5" y="385"/><ellipse cx="501.75" cy="401" fill="#A9DCDF" rx="11" ry="11" style="stroke: #A80036; stroke-width: 1.0;"/><path d="M501.8594,396.3438 L500.7031,401.4219 L503.0313,401.4219 L501.8594,396.3438 Z M500.375,394.1094 L503.3594,394.1094 L506.7188,406.5 L504.2656,406.5 L503.5,403.4375 L500.2188,403.4375 L499.4688,406.5 L497.0313,406.5 L500.375,394.1094 Z "/><text fill="#000000" font-family="sans-serif" font-size="12" font-style="italic" lengthAdjust="spacingAndGlyphs" textLength="80" x="522.25" y="405.1543">SimpleFigure</text><line style="stroke: #A80036; stroke-width: 1.5;" x1="448.5" x2="643.5" y1="417" y2="417"/><polygon fill="none" points="458.5,423.9023,462.5,427.9023,458.5,431.9023,454.5,427.9023" style="stroke: #B38D22; stroke-width: 1.0;"/><text fill="#000000" font-family="sans-serif" font-size="11" lengthAdjust="spacingAndGlyphs" textLength="100" x="467.5" y="431.2104">position:Vertex2D</text><line style="stroke: #A80036; stroke-width: 1.0;" x1="448.5" x2="643.5" y1="437.8047" y2="437.8047"/><text fill="#000000" font-family="sans-serif" font-size="11" lengthAdjust="spacingAndGlyphs" textLength="182" x="453.5" y="452.0151">SimpleFigure(position:Vertex2D)</text><line style="stroke: #A80036; stroke-width: 1.0; stroke-dasharray: 1.0,2.0;" x1="448.5" x2="643.5" y1="458.6094" y2="458.6094"/><ellipse cx="458.5" cy="470.5117" fill="#84BE84" rx="3" ry="3" style="stroke: #038048; stroke-width: 1.0;"/><text fill="#000000" font-family="sans-serif" font-size="11" lengthAdjust="spacingAndGlyphs" textLength="171" x="467.5" y="472.8198">moveBy(dx:double, dy:double)</text><ellipse cx="458.5" cy="483.3164" fill="#84BE84" rx="3" ry="3" style="stroke: #038048; stroke-width: 1.0;"/><text fill="#000000" font-family="sans-serif" font-size="11" lengthAdjust="spacingAndGlyphs" textLength="126" x="467.5" y="485.6245">getPosition():Vertex2D</text><rect fill="#FEFECE" filter="url(#f1)" height="73.6094" style="stroke: #A80036; stroke-width: 1.5;" width="148" x="355" y="671"/><ellipse cx="408.75" cy="687" fill="#ADD1B2" rx="11" ry="11" style="stroke: #A80036; stroke-width: 1.0;"/><path d="M411.7188,692.6406 Q411.1406,692.9375 410.5,693.0859 Q409.8594,693.2344 409.1563,693.2344 Q406.6563,693.2344 405.3359,691.5859 Q404.0156,689.9375 404.0156,686.8125 Q404.0156,683.6875 405.3359,682.0313 Q406.6563,680.375 409.1563,680.375 Q409.8594,680.375 410.5078,680.5313 Q411.1563,680.6875 411.7188,680.9844 L411.7188,683.7031 Q411.0938,683.125 410.5,682.8516 Q409.9063,682.5781 409.2813,682.5781 Q407.9375,682.5781 407.25,683.6484 Q406.5625,684.7188 406.5625,686.8125 Q406.5625,688.9063 407.25,689.9766 Q407.9375,691.0469 409.2813,691.0469 Q409.9063,691.0469 410.5,690.7734 Q411.0938,690.5 411.7188,689.9219 L411.7188,692.6406 Z "/><text fill="#000000" font-family="sans-serif" font-size="12" lengthAdjust="spacingAndGlyphs" textLength="32" x="429.25" y="691.1543">Point</text><line style="stroke: #A80036; stroke-width: 1.5;" x1="356" x2="502" y1="703" y2="703"/><text fill="#000000" font-family="sans-serif" font-size="11" lengthAdjust="spacingAndGlyphs" textLength="136" x="361" y="717.2104">Point(position:Vertex2D)</text><line style="stroke: #A80036; stroke-width: 1.0; stroke-dasharray: 1.0,2.0;" x1="356" x2="502" y1="723.8047" y2="723.8047"/><ellipse cx="366" cy="735.707" fill="#84BE84" rx="3" ry="3" style="stroke: #038048; stroke-width: 1.0;"/><text fill="#000000" font-family="sans-serif" font-size="11" lengthAdjust="spacingAndGlyphs" textLength="91" x="375" y="738.0151">toString():String</text><rect fill="#FEFECE" filter="url(#f1)" height="120.0234" style="stroke: #A80036; stroke-width: 1.5;" width="252" x="538" y="648"/><ellipse cx="642.75" cy="664" fill="#ADD1B2" rx="11" ry="11" style="stroke: #A80036; stroke-width: 1.0;"/><path d="M645.7188,669.6406 Q645.1406,669.9375 644.5,670.0859 Q643.8594,670.2344 643.1563,670.2344 Q640.6563,670.2344 639.3359,668.5859 Q638.0156,666.9375 638.0156,663.8125 Q638.0156,660.6875 639.3359,659.0313 Q640.6563,657.375 643.1563,657.375 Q643.8594,657.375 644.5078,657.5313 Q645.1563,657.6875 645.7188,657.9844 L645.7188,660.7031 Q645.0938,660.125 644.5,659.8516 Q643.9063,659.5781 643.2813,659.5781 Q641.9375,659.5781 641.25,660.6484 Q640.5625,661.7188 640.5625,663.8125 Q640.5625,665.9063 641.25,666.9766 Q641.9375,668.0469 643.2813,668.0469 Q643.9063,668.0469 644.5,667.7734 Q645.0938,667.5 645.7188,666.9219 L645.7188,669.6406 Z "/><text fill="#000000" font-family="sans-serif" font-size="12" lengthAdjust="spacingAndGlyphs" textLength="34" x="663.25" y="668.1543">Circle</text><line style="stroke: #A80036; stroke-width: 1.5;" x1="539" x2="789" y1="680" y2="680"/><rect fill="none" height="6" style="stroke: #C82930; stroke-width: 1.0;" width="6" x="546" y="688.9023"/><text fill="#000000" font-family="sans-serif" font-size="11" lengthAdjust="spacingAndGlyphs" textLength="78" x="558" y="694.2104">radius:double</text><line style="stroke: #A80036; stroke-width: 1.0;" x1="539" x2="789" y1="700.8047" y2="700.8047"/><ellipse cx="549" cy="712.707" fill="#84BE84" rx="3" ry="3" style="stroke: #038048; stroke-width: 1.0;"/><text fill="#000000" font-family="sans-serif" font-size="11" lengthAdjust="spacingAndGlyphs" textLength="226" x="558" y="715.0151">Circle(position:Vertex2D, radius:double)</text><line style="stroke: #A80036; stroke-width: 1.0; stroke-dasharray: 1.0,2.0;" x1="539" x2="789" y1="721.6094" y2="721.6094"/><ellipse cx="549" cy="733.5117" fill="#84BE84" rx="3" ry="3" style="stroke: #038048; stroke-width: 1.0;"/><text fill="#000000" font-family="sans-serif" font-size="11" lengthAdjust="spacingAndGlyphs" textLength="113" x="558" y="735.8198">scale(factor:double)</text><ellipse cx="549" cy="746.3164" fill="#84BE84" rx="3" ry="3" style="stroke: #038048; stroke-width: 1.0;"/><text fill="#000000" font-family="sans-serif" font-size="11" lengthAdjust="spacingAndGlyphs" textLength="106" x="558" y="748.6245">getRadius():double</text><ellipse cx="549" cy="759.1211" fill="#84BE84" rx="3" ry="3" style="stroke: #038048; stroke-width: 1.0;"/><text fill="#000000" font-family="sans-serif" font-size="11" lengthAdjust="spacingAndGlyphs" textLength="91" x="558" y="761.4292">toString():String</text><rect fill="#FEFECE" filter="url(#f1)" height="145.6328" style="stroke: #A80036; stroke-width: 1.5;" width="257" x="62.5" y="635"/><ellipse cx="166.75" cy="651" fill="#ADD1B2" rx="11" ry="11" style="stroke: #A80036; stroke-width: 1.0;"/><path d="M169.7188,656.6406 Q169.1406,656.9375 168.5,657.0859 Q167.8594,657.2344 167.1563,657.2344 Q164.6563,657.2344 163.3359,655.5859 Q162.0156,653.9375 162.0156,650.8125 Q162.0156,647.6875 163.3359,646.0313 Q164.6563,644.375 167.1563,644.375 Q167.8594,644.375 168.5078,644.5313 Q169.1563,644.6875 169.7188,644.9844 L169.7188,647.7031 Q169.0938,647.125 168.5,646.8516 Q167.9063,646.5781 167.2813,646.5781 Q165.9375,646.5781 165.25,647.6484 Q164.5625,648.7188 164.5625,650.8125 Q164.5625,652.9063 165.25,653.9766 Q165.9375,655.0469 167.2813,655.0469 Q167.9063,655.0469 168.5,654.7734 Q169.0938,654.5 169.7188,653.9219 L169.7188,656.6406 Z "/><text fill="#000000" font-family="sans-serif" font-size="12" lengthAdjust="spacingAndGlyphs" textLength="40" x="187.25" y="655.1543">Ellipse</text><line style="stroke: #A80036; stroke-width: 1.5;" x1="63.5" x2="318.5" y1="667" y2="667"/><rect fill="none" height="6" style="stroke: #C82930; stroke-width: 1.0;" width="6" x="70.5" y="675.9023"/><text fill="#000000" font-family="sans-serif" font-size="11" lengthAdjust="spacingAndGlyphs" textLength="72" x="82.5" y="681.2104">width:double</text><rect fill="none" height="6" style="stroke: #C82930; stroke-width: 1.0;" width="6" x="70.5" y="688.707"/><text fill="#000000" font-family="sans-serif" font-size="11" lengthAdjust="spacingAndGlyphs" textLength="77" x="82.5" y="694.0151">height:double</text><line style="stroke: #A80036; stroke-width: 1.0;" x1="63.5" x2="318.5" y1="700.6094" y2="700.6094"/><ellipse cx="73.5" cy="712.5117" fill="#84BE84" rx="3" ry="3" style="stroke: #038048; stroke-width: 1.0;"/><text fill="#000000" font-family="sans-serif" font-size="11" lengthAdjust="spacingAndGlyphs" textLength="231" x="82.5" y="714.8198">Ellipse(position:Vertex2D, radius:double)</text><line style="stroke: #A80036; stroke-width: 1.0; stroke-dasharray: 1.0,2.0;" x1="63.5" x2="318.5" y1="721.4141" y2="721.4141"/><ellipse cx="73.5" cy="733.3164" fill="#84BE84" rx="3" ry="3" style="stroke: #038048; stroke-width: 1.0;"/><text fill="#000000" font-family="sans-serif" font-size="11" lengthAdjust="spacingAndGlyphs" textLength="212" x="82.5" y="735.6245">scale(xFactor:double, yFactor:double)</text><ellipse cx="73.5" cy="746.1211" fill="#84BE84" rx="3" ry="3" style="stroke: #038048; stroke-width: 1.0;"/><text fill="#000000" font-family="sans-serif" font-size="11" lengthAdjust="spacingAndGlyphs" textLength="98" x="82.5" y="748.4292">getWidth():double</text><ellipse cx="73.5" cy="758.9258" fill="#84BE84" rx="3" ry="3" style="stroke: #038048; stroke-width: 1.0;"/><text fill="#000000" font-family="sans-serif" font-size="11" lengthAdjust="spacingAndGlyphs" textLength="104" x="82.5" y="761.2339">getHeight():double</text><ellipse cx="73.5" cy="771.7305" fill="#84BE84" rx="3" ry="3" style="stroke: #038048; stroke-width: 1.0;"/><text fill="#000000" font-family="sans-serif" font-size="11" lengthAdjust="spacingAndGlyphs" textLength="91" x="82.5" y="774.0386">toString():String</text><rect fill="#FEFECE" filter="url(#f1)" height="171.2422" style="stroke: #A80036; stroke-width: 1.5;" width="271" x="1291.5" y="353"/><ellipse cx="1403.25" cy="369" fill="#A9DCDF" rx="11" ry="11" style="stroke: #A80036; stroke-width: 1.0;"/><path d="M1403.3594,364.3438 L1402.2031,369.4219 L1404.5313,369.4219 L1403.3594,364.3438 Z M1401.875,362.1094 L1404.8594,362.1094 L1408.2188,374.5 L1405.7656,374.5 L1405,371.4375 L1401.7188,371.4375 L1400.9688,374.5 L1398.5313,374.5 L1401.875,362.1094 Z "/><text fill="#000000" font-family="sans-serif" font-size="12" font-style="italic" lengthAdjust="spacingAndGlyphs" textLength="39" x="1423.75" y="373.1543">Figure</text><line style="stroke: #A80036; stroke-width: 1.5;" x1="1292.5" x2="1561.5" y1="385" y2="385"/><ellipse cx="1302.5" cy="396.9023" fill="none" rx="3" ry="3" style="stroke: #038048; stroke-width: 1.0;"/><text fill="#000000" font-family="sans-serif" font-size="11" lengthAdjust="spacingAndGlyphs" textLength="151" x="1311.5" y="399.2104">DEFAULT_X_COORD:double</text><ellipse cx="1302.5" cy="409.707" fill="none" rx="3" ry="3" style="stroke: #038048; stroke-width: 1.0;"/><text fill="#000000" font-family="sans-serif" font-size="11" lengthAdjust="spacingAndGlyphs" textLength="151" x="1311.5" y="412.0151">DEFAULT_Y_COORD:double</text><polygon fill="none" points="1302.5,417.5117,1306.5,421.5117,1302.5,425.5117,1298.5,421.5117" style="stroke: #B38D22; stroke-width: 1.0;"/><text fill="#000000" font-family="sans-serif" font-size="11" lengthAdjust="spacingAndGlyphs" textLength="91" x="1311.5" y="424.8198">center:Vertex2D</text><polygon fill="none" points="1302.5,430.3164,1306.5,434.3164,1302.5,438.3164,1298.5,434.3164" style="stroke: #B38D22; stroke-width: 1.0;"/><text fill="#000000" font-family="sans-serif" font-size="11" lengthAdjust="spacingAndGlyphs" textLength="168" x="1311.5" y="437.6245">vertices:ArrayList&lt;Vertex2D&gt;</text><line style="stroke: #A80036; stroke-width: 1.0;" x1="1292.5" x2="1561.5" y1="444.2188" y2="444.2188"/><ellipse cx="1302.5" cy="456.1211" fill="#84BE84" rx="3" ry="3" style="stroke: #038048; stroke-width: 1.0;"/><text fill="#000000" font-family="sans-serif" font-size="11" lengthAdjust="spacingAndGlyphs" textLength="134" x="1311.5" y="458.4292">Figure(center:Vertex2D)</text><line style="stroke: #A80036; stroke-width: 1.0; stroke-dasharray: 1.0,2.0;" x1="1292.5" x2="1561.5" y1="465.0234" y2="465.0234"/><rect fill="#F24D5C" height="6" style="stroke: #C82930; stroke-width: 1.0;" width="6" x="1299.5" y="473.9258"/><text fill="#000000" font-family="sans-serif" font-size="11" lengthAdjust="spacingAndGlyphs" textLength="245" x="1311.5" y="479.2339">addVerticesToList(newVertices:Vertex2D...)</text><ellipse cx="1302.5" cy="489.7305" fill="#84BE84" rx="3" ry="3" style="stroke: #038048; stroke-width: 1.0;"/><text fill="#000000" font-family="sans-serif" font-size="11" lengthAdjust="spacingAndGlyphs" textLength="171" x="1311.5" y="492.0386">moveBy(dx:double, dy:double)</text><ellipse cx="1302.5" cy="502.5352" fill="#84BE84" rx="3" ry="3" style="stroke: #038048; stroke-width: 1.0;"/><text fill="#000000" font-family="sans-serif" font-size="11" lengthAdjust="spacingAndGlyphs" textLength="119" x="1311.5" y="504.8433">getCenter():Vertex2D</text><ellipse cx="1302.5" cy="515.3398" fill="#84BE84" rx="3" ry="3" style="stroke: #038048; stroke-width: 1.0;"/><text fill="#000000" font-family="sans-serif" font-size="11" lengthAdjust="spacingAndGlyphs" textLength="142" x="1311.5" y="517.6479">getVertex(n:int):Vertex2D</text><rect fill="#FEFECE" filter="url(#f1)" height="145.6328" style="stroke: #A80036; stroke-width: 1.5;" width="238" x="1582" y="635"/><ellipse cx="1684.25" cy="651" fill="#ADD1B2" rx="11" ry="11" style="stroke: #A80036; stroke-width: 1.0;"/><path d="M1687.2188,656.6406 Q1686.6406,656.9375 1686,657.0859 Q1685.3594,657.2344 1684.6563,657.2344 Q1682.1563,657.2344 1680.8359,655.5859 Q1679.5156,653.9375 1679.5156,650.8125 Q1679.5156,647.6875 1680.8359,646.0313 Q1682.1563,644.375 1684.6563,644.375 Q1685.3594,644.375 1686.0078,644.5313 Q1686.6563,644.6875 1687.2188,644.9844 L1687.2188,647.7031 Q1686.5938,647.125 1686,646.8516 Q1685.4063,646.5781 1684.7813,646.5781 Q1683.4375,646.5781 1682.75,647.6484 Q1682.0625,648.7188 1682.0625,650.8125 Q1682.0625,652.9063 1682.75,653.9766 Q1683.4375,655.0469 1684.7813,655.0469 Q1685.4063,655.0469 1686,654.7734 Q1686.5938,654.5 1687.2188,653.9219 L1687.2188,656.6406 Z "/><text fill="#000000" font-family="sans-serif" font-size="12" lengthAdjust="spacingAndGlyphs" textLength="25" x="1704.75" y="655.1543">Line</text><line style="stroke: #A80036; stroke-width: 1.5;" x1="1583" x2="1819" y1="667" y2="667"/><rect fill="none" height="6" style="stroke: #C82930; stroke-width: 1.0;" width="6" x="1590" y="675.9023"/><text fill="#000000" font-family="sans-serif" font-size="11" lengthAdjust="spacingAndGlyphs" textLength="68" x="1602" y="681.2104">v0:Vertex2D</text><rect fill="none" height="6" style="stroke: #C82930; stroke-width: 1.0;" width="6" x="1590" y="688.707"/><text fill="#000000" font-family="sans-serif" font-size="11" lengthAdjust="spacingAndGlyphs" textLength="68" x="1602" y="694.0151">v1:Vertex2D</text><line style="stroke: #A80036; stroke-width: 1.0;" x1="1583" x2="1819" y1="700.6094" y2="700.6094"/><ellipse cx="1593" cy="712.5117" fill="#84BE84" rx="3" ry="3" style="stroke: #038048; stroke-width: 1.0;"/><text fill="#000000" font-family="sans-serif" font-size="11" lengthAdjust="spacingAndGlyphs" textLength="175" x="1602" y="714.8198">Line(v0:Vertex2D, v1:Vertex2D)</text><line style="stroke: #A80036; stroke-width: 1.0; stroke-dasharray: 1.0,2.0;" x1="1583" x2="1819" y1="721.4141" y2="721.4141"/><rect fill="#F24D5C" height="6" style="stroke: #C82930; stroke-width: 1.0;" width="6" x="1590" y="730.3164"/><text fill="#000000" font-family="sans-serif" font-size="11" lengthAdjust="spacingAndGlyphs" textLength="113" x="1602" y="735.6245">updateCenterPoint()</text><ellipse cx="1593" cy="746.1211" fill="#84BE84" rx="3" ry="3" style="stroke: #038048; stroke-width: 1.0;"/><text fill="#000000" font-family="sans-serif" font-size="11" lengthAdjust="spacingAndGlyphs" textLength="115" x="1602" y="748.4292">rotate(angle:double)</text><ellipse cx="1593" cy="758.9258" fill="#84BE84" rx="3" ry="3" style="stroke: #038048; stroke-width: 1.0;"/><text fill="#000000" font-family="sans-serif" font-size="11" lengthAdjust="spacingAndGlyphs" textLength="212" x="1602" y="761.2339">scale(xFactor:double, yFactor:double)</text><ellipse cx="1593" cy="771.7305" fill="#84BE84" rx="3" ry="3" style="stroke: #038048; stroke-width: 1.0;"/><text fill="#000000" font-family="sans-serif" font-size="11" lengthAdjust="spacingAndGlyphs" textLength="91" x="1602" y="774.0386">toString():String</text><rect fill="#FEFECE" filter="url(#f1)" height="209.6563" style="stroke: #A80036; stroke-width: 1.5;" width="336" x="1855" y="603"/><ellipse cx="1993.75" cy="619" fill="#ADD1B2" rx="11" ry="11" style="stroke: #A80036; stroke-width: 1.0;"/><path d="M1996.7188,624.6406 Q1996.1406,624.9375 1995.5,625.0859 Q1994.8594,625.2344 1994.1563,625.2344 Q1991.6563,625.2344 1990.3359,623.5859 Q1989.0156,621.9375 1989.0156,618.8125 Q1989.0156,615.6875 1990.3359,614.0313 Q1991.6563,612.375 1994.1563,612.375 Q1994.8594,612.375 1995.5078,612.5313 Q1996.1563,612.6875 1996.7188,612.9844 L1996.7188,615.7031 Q1996.0938,615.125 1995.5,614.8516 Q1994.9063,614.5781 1994.2813,614.5781 Q1992.9375,614.5781 1992.25,615.6484 Q1991.5625,616.7188 1991.5625,618.8125 Q1991.5625,620.9063 1992.25,621.9766 Q1992.9375,623.0469 1994.2813,623.0469 Q1994.9063,623.0469 1995.5,622.7734 Q1996.0938,622.5 1996.7188,621.9219 L1996.7188,624.6406 Z "/><text fill="#000000" font-family="sans-serif" font-size="12" lengthAdjust="spacingAndGlyphs" textLength="50" x="2014.25" y="623.1543">Triangle</text><line style="stroke: #A80036; stroke-width: 1.5;" x1="1856" x2="2190" y1="635" y2="635"/><rect fill="none" height="6" style="stroke: #C82930; stroke-width: 1.0;" width="6" x="1863" y="643.9023"/><text fill="#000000" font-family="sans-serif" font-size="11" lengthAdjust="spacingAndGlyphs" textLength="68" x="1875" y="649.2104">v0:Vertex2D</text><rect fill="none" height="6" style="stroke: #C82930; stroke-width: 1.0;" width="6" x="1863" y="656.707"/><text fill="#000000" font-family="sans-serif" font-size="11" lengthAdjust="spacingAndGlyphs" textLength="68" x="1875" y="662.0151">v1:Vertex2D</text><rect fill="none" height="6" style="stroke: #C82930; stroke-width: 1.0;" width="6" x="1863" y="669.5117"/><text fill="#000000" font-family="sans-serif" font-size="11" lengthAdjust="spacingAndGlyphs" textLength="68" x="1875" y="674.8198">v2:Vertex2D</text><rect fill="none" height="6" style="stroke: #C82930; stroke-width: 1.0;" width="6" x="1863" y="682.3164"/><text fill="#000000" font-family="sans-serif" font-size="11" lengthAdjust="spacingAndGlyphs" textLength="72" x="1875" y="687.6245">width:double</text><rect fill="none" height="6" style="stroke: #C82930; stroke-width: 1.0;" width="6" x="1863" y="695.1211"/><text fill="#000000" font-family="sans-serif" font-size="11" lengthAdjust="spacingAndGlyphs" textLength="77" x="1875" y="700.4292">height:double</text><line style="stroke: #A80036; stroke-width: 1.0;" x1="1856" x2="2190" y1="707.0234" y2="707.0234"/><ellipse cx="1866" cy="718.9258" fill="#84BE84" rx="3" ry="3" style="stroke: #038048; stroke-width: 1.0;"/><text fill="#000000" font-family="sans-serif" font-size="11" lengthAdjust="spacingAndGlyphs" textLength="310" x="1875" y="721.2339">Triangle(center:Vertex2D, width:double, height:double)</text><ellipse cx="1866" cy="731.7305" fill="#84BE84" rx="3" ry="3" style="stroke: #038048; stroke-width: 1.0;"/><text fill="#000000" font-family="sans-serif" font-size="11" lengthAdjust="spacingAndGlyphs" textLength="274" x="1875" y="734.0386">Triangle(v0:Vertex2D, v1:Vertex2D, v2:Vertex2D)</text><line style="stroke: #A80036; stroke-width: 1.0; stroke-dasharray: 1.0,2.0;" x1="1856" x2="2190" y1="740.6328" y2="740.6328"/><rect fill="#F24D5C" height="6" style="stroke: #C82930; stroke-width: 1.0;" width="6" x="1863" y="749.5352"/><text fill="#000000" font-family="sans-serif" font-size="11" lengthAdjust="spacingAndGlyphs" textLength="171" x="1875" y="754.8433">calculateVerticesFromCenter()</text><rect fill="#F24D5C" height="6" style="stroke: #C82930; stroke-width: 1.0;" width="6" x="1863" y="762.3398"/><text fill="#000000" font-family="sans-serif" font-size="11" lengthAdjust="spacingAndGlyphs" textLength="113" x="1875" y="767.6479">updateCenterPoint()</text><ellipse cx="1866" cy="778.1445" fill="#84BE84" rx="3" ry="3" style="stroke: #038048; stroke-width: 1.0;"/><text fill="#000000" font-family="sans-serif" font-size="11" lengthAdjust="spacingAndGlyphs" textLength="115" x="1875" y="780.4526">rotate(angle:double)</text><ellipse cx="1866" cy="790.9492" fill="#84BE84" rx="3" ry="3" style="stroke: #038048; stroke-width: 1.0;"/><text fill="#000000" font-family="sans-serif" font-size="11" lengthAdjust="spacingAndGlyphs" textLength="212" x="1875" y="793.2573">scale(xFactor:double, yFactor:double)</text><ellipse cx="1866" cy="803.7539" fill="#84BE84" rx="3" ry="3" style="stroke: #038048; stroke-width: 1.0;"/><text fill="#000000" font-family="sans-serif" font-size="11" lengthAdjust="spacingAndGlyphs" textLength="91" x="1875" y="806.062">toString():String</text><rect fill="#FEFECE" filter="url(#f1)" height="248.0703" style="stroke: #A80036; stroke-width: 1.5;" width="385" x="886.5" y="584"/><ellipse cx="1043.25" cy="600" fill="#ADD1B2" rx="11" ry="11" style="stroke: #A80036; stroke-width: 1.0;"/><path d="M1046.2188,605.6406 Q1045.6406,605.9375 1045,606.0859 Q1044.3594,606.2344 1043.6563,606.2344 Q1041.1563,606.2344 1039.8359,604.5859 Q1038.5156,602.9375 1038.5156,599.8125 Q1038.5156,596.6875 1039.8359,595.0313 Q1041.1563,593.375 1043.6563,593.375 Q1044.3594,593.375 1045.0078,593.5313 Q1045.6563,593.6875 1046.2188,593.9844 L1046.2188,596.7031 Q1045.5938,596.125 1045,595.8516 Q1044.4063,595.5781 1043.7813,595.5781 Q1042.4375,595.5781 1041.75,596.6484 Q1041.0625,597.7188 1041.0625,599.8125 Q1041.0625,601.9063 1041.75,602.9766 Q1042.4375,604.0469 1043.7813,604.0469 Q1044.4063,604.0469 1045,603.7734 Q1045.5938,603.5 1046.2188,602.9219 L1046.2188,605.6406 Z "/><text fill="#000000" font-family="sans-serif" font-size="12" lengthAdjust="spacingAndGlyphs" textLength="63" x="1063.75" y="604.1543">Rectangle</text><line style="stroke: #A80036; stroke-width: 1.5;" x1="887.5" x2="1270.5" y1="616" y2="616"/><rect fill="none" height="6" style="stroke: #C82930; stroke-width: 1.0;" width="6" x="894.5" y="624.9023"/><text fill="#000000" font-family="sans-serif" font-size="11" lengthAdjust="spacingAndGlyphs" textLength="68" x="906.5" y="630.2104">v0:Vertex2D</text><rect fill="none" height="6" style="stroke: #C82930; stroke-width: 1.0;" width="6" x="894.5" y="637.707"/><text fill="#000000" font-family="sans-serif" font-size="11" lengthAdjust="spacingAndGlyphs" textLength="68" x="906.5" y="643.0151">v1:Vertex2D</text><rect fill="none" height="6" style="stroke: #C82930; stroke-width: 1.0;" width="6" x="894.5" y="650.5117"/><text fill="#000000" font-family="sans-serif" font-size="11" lengthAdjust="spacingAndGlyphs" textLength="68" x="906.5" y="655.8198">v3:Vertex2D</text><rect fill="none" height="6" style="stroke: #C82930; stroke-width: 1.0;" width="6" x="894.5" y="663.3164"/><text fill="#000000" font-family="sans-serif" font-size="11" lengthAdjust="spacingAndGlyphs" textLength="68" x="906.5" y="668.6245">v3:Vertex2D</text><rect fill="none" height="6" style="stroke: #C82930; stroke-width: 1.0;" width="6" x="894.5" y="676.1211"/><text fill="#000000" font-family="sans-serif" font-size="11" lengthAdjust="spacingAndGlyphs" textLength="72" x="906.5" y="681.4292">width:double</text><rect fill="none" height="6" style="stroke: #C82930; stroke-width: 1.0;" width="6" x="894.5" y="688.9258"/><text fill="#000000" font-family="sans-serif" font-size="11" lengthAdjust="spacingAndGlyphs" textLength="77" x="906.5" y="694.2339">height:double</text><line style="stroke: #A80036; stroke-width: 1.0;" x1="887.5" x2="1270.5" y1="700.8281" y2="700.8281"/><ellipse cx="897.5" cy="712.7305" fill="#84BE84" rx="3" ry="3" style="stroke: #038048; stroke-width: 1.0;"/><text fill="#000000" font-family="sans-serif" font-size="11" lengthAdjust="spacingAndGlyphs" textLength="319" x="906.5" y="715.0386">Rectangle(center:Vertex2D, width:double, height:double)</text><ellipse cx="897.5" cy="725.5352" fill="#84BE84" rx="3" ry="3" style="stroke: #038048; stroke-width: 1.0;"/><text fill="#000000" font-family="sans-serif" font-size="11" lengthAdjust="spacingAndGlyphs" textLength="359" x="906.5" y="727.8433">Rectangle(v0:Vertex2D, v1:Vertex2D, v2:Vertex2D, v3:Vertex2D)</text><line style="stroke: #A80036; stroke-width: 1.0; stroke-dasharray: 1.0,2.0;" x1="887.5" x2="1270.5" y1="734.4375" y2="734.4375"/><rect fill="#F24D5C" height="6" style="stroke: #C82930; stroke-width: 1.0;" width="6" x="894.5" y="743.3398"/><text fill="#000000" font-family="sans-serif" font-size="11" lengthAdjust="spacingAndGlyphs" textLength="171" x="906.5" y="748.6479">calculateVerticesFromCenter()</text><rect fill="#F24D5C" height="6" style="stroke: #C82930; stroke-width: 1.0;" width="6" x="894.5" y="756.1445"/><text fill="#000000" font-family="sans-serif" font-size="11" lengthAdjust="spacingAndGlyphs" textLength="113" x="906.5" y="761.4526">updateCenterPoint()</text><rect fill="#F24D5C" height="6" style="stroke: #C82930; stroke-width: 1.0;" width="6" x="894.5" y="768.9492"/><text fill="#000000" font-family="sans-serif" font-size="11" lengthAdjust="spacingAndGlyphs" textLength="88" x="906.5" y="774.2573">calculateWidth()</text><rect fill="#F24D5C" height="6" style="stroke: #C82930; stroke-width: 1.0;" width="6" x="894.5" y="781.7539"/><text fill="#000000" font-family="sans-serif" font-size="11" lengthAdjust="spacingAndGlyphs" textLength="94" x="906.5" y="787.062">calculateHeight()</text><ellipse cx="897.5" cy="797.5586" fill="#84BE84" rx="3" ry="3" style="stroke: #038048; stroke-width: 1.0;"/><text fill="#000000" font-family="sans-serif" font-size="11" lengthAdjust="spacingAndGlyphs" textLength="115" x="906.5" y="799.8667">rotate(angle:double)</text><ellipse cx="897.5" cy="810.3633" fill="#84BE84" rx="3" ry="3" style="stroke: #038048; stroke-width: 1.0;"/><text fill="#000000" font-family="sans-serif" font-size="11" lengthAdjust="spacingAndGlyphs" textLength="212" x="906.5" y="812.6714">scale(xFactor:double, yFactor:double)</text><ellipse cx="897.5" cy="823.168" fill="#84BE84" rx="3" ry="3" style="stroke: #038048; stroke-width: 1.0;"/><text fill="#000000" font-family="sans-serif" font-size="11" lengthAdjust="spacingAndGlyphs" textLength="91" x="906.5" y="825.4761">toString():String</text><rect fill="#FEFECE" filter="url(#f1)" height="196.8516" style="stroke: #A80036; stroke-width: 1.5;" width="240" x="1307" y="609.5"/><ellipse cx="1400.25" cy="625.5" fill="#ADD1B2" rx="11" ry="11" style="stroke: #A80036; stroke-width: 1.0;"/><path d="M1403.2188,631.1406 Q1402.6406,631.4375 1402,631.5859 Q1401.3594,631.7344 1400.6563,631.7344 Q1398.1563,631.7344 1396.8359,630.0859 Q1395.5156,628.4375 1395.5156,625.3125 Q1395.5156,622.1875 1396.8359,620.5313 Q1398.1563,618.875 1400.6563,618.875 Q1401.3594,618.875 1402.0078,619.0313 Q1402.6563,619.1875 1403.2188,619.4844 L1403.2188,622.2031 Q1402.5938,621.625 1402,621.3516 Q1401.4063,621.0781 1400.7813,621.0781 Q1399.4375,621.0781 1398.75,622.1484 Q1398.0625,623.2188 1398.0625,625.3125 Q1398.0625,627.4063 1398.75,628.4766 Q1399.4375,629.5469 1400.7813,629.5469 Q1401.4063,629.5469 1402,629.2734 Q1402.5938,629 1403.2188,628.4219 L1403.2188,631.1406 Z "/><text fill="#000000" font-family="sans-serif" font-size="12" lengthAdjust="spacingAndGlyphs" textLength="45" x="1420.75" y="629.6543">Square</text><line style="stroke: #A80036; stroke-width: 1.5;" x1="1308" x2="1546" y1="641.5" y2="641.5"/><rect fill="none" height="6" style="stroke: #C82930; stroke-width: 1.0;" width="6" x="1315" y="650.4023"/><text fill="#000000" font-family="sans-serif" font-size="11" lengthAdjust="spacingAndGlyphs" textLength="68" x="1327" y="655.7104">v0:Vertex2D</text><rect fill="none" height="6" style="stroke: #C82930; stroke-width: 1.0;" width="6" x="1315" y="663.207"/><text fill="#000000" font-family="sans-serif" font-size="11" lengthAdjust="spacingAndGlyphs" textLength="68" x="1327" y="668.5151">v1:Vertex2D</text><rect fill="none" height="6" style="stroke: #C82930; stroke-width: 1.0;" width="6" x="1315" y="676.0117"/><text fill="#000000" font-family="sans-serif" font-size="11" lengthAdjust="spacingAndGlyphs" textLength="68" x="1327" y="681.3198">v3:Vertex2D</text><rect fill="none" height="6" style="stroke: #C82930; stroke-width: 1.0;" width="6" x="1315" y="688.8164"/><text fill="#000000" font-family="sans-serif" font-size="11" lengthAdjust="spacingAndGlyphs" textLength="68" x="1327" y="694.1245">v3:Vertex2D</text><rect fill="none" height="6" style="stroke: #C82930; stroke-width: 1.0;" width="6" x="1315" y="701.6211"/><text fill="#000000" font-family="sans-serif" font-size="11" lengthAdjust="spacingAndGlyphs" textLength="104" x="1327" y="706.9292">sideLength:double</text><line style="stroke: #A80036; stroke-width: 1.0;" x1="1308" x2="1546" y1="713.5234" y2="713.5234"/><ellipse cx="1318" cy="725.4258" fill="#84BE84" rx="3" ry="3" style="stroke: #038048; stroke-width: 1.0;"/><text fill="#000000" font-family="sans-serif" font-size="11" lengthAdjust="spacingAndGlyphs" textLength="214" x="1327" y="727.7339">Square(center:Vertex2D, side:double)</text><line style="stroke: #A80036; stroke-width: 1.0; stroke-dasharray: 1.0,2.0;" x1="1308" x2="1546" y1="734.3281" y2="734.3281"/><rect fill="#F24D5C" height="6" style="stroke: #C82930; stroke-width: 1.0;" width="6" x="1315" y="743.2305"/><text fill="#000000" font-family="sans-serif" font-size="11" lengthAdjust="spacingAndGlyphs" textLength="113" x="1327" y="748.5386">updateCenterPoint()</text><ellipse cx="1318" cy="759.0352" fill="#84BE84" rx="3" ry="3" style="stroke: #038048; stroke-width: 1.0;"/><text fill="#000000" font-family="sans-serif" font-size="11" lengthAdjust="spacingAndGlyphs" textLength="171" x="1327" y="761.3433">moveBy(dx:double, dy:double)</text><ellipse cx="1318" cy="771.8398" fill="#84BE84" rx="3" ry="3" style="stroke: #038048; stroke-width: 1.0;"/><text fill="#000000" font-family="sans-serif" font-size="11" lengthAdjust="spacingAndGlyphs" textLength="115" x="1327" y="774.1479">rotate(angle:double)</text><ellipse cx="1318" cy="784.6445" fill="#84BE84" rx="3" ry="3" style="stroke: #038048; stroke-width: 1.0;"/><text fill="#000000" font-family="sans-serif" font-size="11" lengthAdjust="spacingAndGlyphs" textLength="212" x="1327" y="786.9526">scale(xFactor:double, yFactor:double)</text><ellipse cx="1318" cy="797.4492" fill="#84BE84" rx="3" ry="3" style="stroke: #038048; stroke-width: 1.0;"/><text fill="#000000" font-family="sans-serif" font-size="11" lengthAdjust="spacingAndGlyphs" textLength="91" x="1327" y="799.7573">toString():String</text><path d="M605.756,281.796 C607.09,283.257 608.504,284.661 610,286 C626.241,300.536 788.258,281.34 806,294 C833.001,313.266 846.983,347.548 854.224,377.774 " fill="none" style="stroke: #A80036; stroke-width: 1.0;"/><ellipse cx="601.6588" cy="276.0726" fill="#FFFFFF" rx="8" ry="8" style="stroke: #A80036; stroke-width: 1.0;"/><line style="stroke: #A80036; stroke-width: 1.0;" x1="606.3146" x2="597.003" y1="282.5783" y2="269.567"/><line style="stroke: #A80036; stroke-width: 1.0;" x1="595.1532" x2="608.1645" y1="280.7285" y2="271.4168"/><path d="M575.896,162.803 C495.325,170.081 117.142,208.501 46,294 C19.6068,325.72 23.9749,376.342 30.3751,408.208 " fill="none" style="stroke: #A80036; stroke-width: 1.0;"/><ellipse cx="575.13" cy="162.9432" fill="#FFFFFF" rx="8" ry="8" style="stroke: #A80036; stroke-width: 1.0;"/><line style="stroke: #A80036; stroke-width: 1.0;" x1="567.26" x2="583" y1="164.3795" y2="161.507"/><line style="stroke: #A80036; stroke-width: 1.0;" x1="573.6937" x2="576.5662" y1="155.0732" y2="170.8133"/><path d="M1355.44,348.846 C1335.42,328.47 1312.4,308.544 1288,294 C1202.28,242.906 1096.07,210.821 1006.12,191.049 " fill="none" style="stroke: #A80036; stroke-width: 1.0; stroke-dasharray: 7.0,7.0;"/><polygon fill="#A80036" points="1359.14,352.654,1355.7367,343.4118,1355.6555,349.0681,1349.9993,348.987,1359.14,352.654" style="stroke: #A80036; stroke-width: 1.0;"/><path d="M601.325,380.945 C639.294,342.132 690.358,289.935 733.156,246.185 " fill="none" style="stroke: #A80036; stroke-width: 1.0; stroke-dasharray: 7.0,7.0;"/><polygon fill="#A80036" points="597.693,384.659,606.8455,381.0215,601.189,381.0844,601.1262,375.4279,597.693,384.659" style="stroke: #A80036; stroke-width: 1.0;"/><path d="M514.906,510.59 C492.327,562.214 462.71,629.929 444.806,670.862 " fill="none" style="stroke: #A80036; stroke-width: 1.0;"/><polygon fill="none" points="508.596,507.549,523.024,492.03,521.423,513.159,508.596,507.549" style="stroke: #A80036; stroke-width: 1.0;"/><path d="M577.324,510.511 C596.188,553.275 619.933,607.102 637.798,647.601 " fill="none" style="stroke: #A80036; stroke-width: 1.0;"/><polygon fill="none" points="570.84,513.154,569.172,492.03,583.649,507.504,570.84,513.154" style="stroke: #A80036; stroke-width: 1.0;"/><path d="M469.818,504.401 C460.941,511.239 451.882,517.91 443,524 C398.353,554.614 381.446,553.095 337,584 C314.823,599.421 291.968,617.489 271.116,634.957 " fill="none" style="stroke: #A80036; stroke-width: 1.0;"/><polygon fill="none" points="465.488,498.901,485.523,492.001,474.163,509.889,465.488,498.901" style="stroke: #A80036; stroke-width: 1.0;"/><path d="M1528.01,538.113 C1560.75,570.075 1596.44,604.918 1626.85,634.611 " fill="none" style="stroke: #A80036; stroke-width: 1.0;"/><polygon fill="none" points="1523.12,543.119,1513.7,524.139,1532.9,533.101,1523.12,543.119" style="stroke: #A80036; stroke-width: 1.0;"/><path d="M1582.37,484.042 C1660.9,509.054 1756.56,543.407 1838,584 C1849.65,589.807 1861.44,596.221 1873.14,602.98 " fill="none" style="stroke: #A80036; stroke-width: 1.0;"/><polygon fill="none" points="1579.77,490.563,1562.79,477.886,1583.97,477.207,1579.77,490.563" style="stroke: #A80036; stroke-width: 1.0;"/><path d="M1301.02,536.337 C1280.96,551.758 1259.97,567.89 1239.25,583.82 " fill="none" style="stroke: #A80036; stroke-width: 1.0;"/><polygon fill="none" points="1296.77,530.778,1316.89,524.139,1305.3,541.877,1296.77,530.778" style="stroke: #A80036; stroke-width: 1.0;"/><path d="M1427,544.296 C1427,565.733 1427,588.212 1427,609.386 " fill="none" style="stroke: #A80036; stroke-width: 1.0;"/><polygon fill="none" points="1420,544.139,1427,524.139,1434,544.139,1420,544.139" style="stroke: #A80036; stroke-width: 1.0;"/></g></svg>